<?xml version="1.0" encoding="UTF-8"?>
<svg version="1.1" xmlns="http://www.w3.org/2000/svg" width="1024" height="1024">
<path d="M0 0 C337.92 0 675.84 0 1024 0 C1024 337.92 1024 675.84 1024 1024 C686.08 1024 348.16 1024 0 1024 C0 686.08 0 348.16 0 0 Z " fill="#F6F5F3" transform="translate(0,0)"/>
<path d="M0 0 C1.27141846 -0.00945648 2.54283691 -0.01891296 3.8527832 -0.02865601 C5.24170238 -0.02328631 6.63061873 -0.01713337 8.01953125 -0.01025391 C9.44295399 -0.01227479 10.86637572 -0.01518636 12.28979492 -0.01895142 C15.27239849 -0.02337412 18.25473246 -0.01694576 21.23730469 -0.00292969 C25.06088216 0.01416256 28.88382791 0.00432104 32.7073822 -0.01364708 C35.64649212 -0.02448659 38.58545222 -0.0210379 41.52456665 -0.0132637 C42.93437779 -0.01126214 44.34420253 -0.01371947 45.7539978 -0.02070236 C47.72401673 -0.02831864 49.69408334 -0.0146522 51.6640625 0 C52.78530518 0.00238678 53.90654785 0.00477356 55.06176758 0.00723267 C57.83203125 0.38818359 57.83203125 0.38818359 59.69425964 1.5202179 C61.36646932 4.265611 61.20610983 6.46299521 61.2043457 9.66381836 C61.21368889 11.60581871 61.21368889 11.60581871 61.22322083 13.58705139 C61.21453367 15.00123479 61.20521579 16.41541444 61.1953125 17.82958984 C61.19479389 19.27782694 61.19531162 20.72606475 61.19682312 22.17430115 C61.19673342 25.20818603 61.18630841 28.24180504 61.16821289 31.27563477 C61.14550533 35.16870795 61.14498545 39.0613933 61.15173054 42.9545145 C61.155068 45.94418295 61.14844503 48.93376261 61.1386013 51.92341423 C61.13474666 53.35916619 61.13360218 54.79492802 61.13518715 56.23068428 C61.13555703 58.23445979 61.1214779 60.23822239 61.10668945 62.24194336 C61.09977837 63.95378563 61.09977837 63.95378563 61.09272766 65.70021057 C60.83203125 68.38818359 60.83203125 68.38818359 58.83203125 70.38818359 C56.23344421 70.70030212 56.23344421 70.70030212 52.90112305 70.78637695 C51.65610519 70.8223851 50.41108734 70.85839325 49.12834167 70.89549255 C47.76266431 70.9239728 46.39696592 70.95145992 45.03125 70.97802734 C43.63360813 71.00943806 42.23596921 71.04097978 40.83833313 71.07264709 C37.90542021 71.13616035 34.97247829 71.19091547 32.03930664 71.2409668 C28.28588021 71.30672381 24.53406945 71.40497476 20.78160381 71.51131344 C17.89330841 71.58767031 15.00491277 71.64109614 12.11600685 71.68826485 C10.73278224 71.71464704 9.34969049 71.74940202 7.96689415 71.79276848 C6.02888051 71.85119933 4.08989757 71.87420318 2.15112305 71.89575195 C0.4980439 71.93000526 0.4980439 71.93000526 -1.18843079 71.96495056 C-5.26316622 71.17617968 -6.70231066 69.68057793 -9.16796875 66.38818359 C-9.78942871 63.41537476 -9.78942871 63.41537476 -9.78320312 60.08496094 C-9.79250854 58.83371429 -9.80181396 57.58246765 -9.81140137 56.29330444 C-9.79581739 54.93689842 -9.77923261 53.58050357 -9.76171875 52.22412109 C-9.76000668 50.82597964 -9.76007431 49.42783498 -9.76184082 48.0296936 C-9.76019045 45.10590726 -9.74154236 42.18289037 -9.70996094 39.25927734 C-9.67020936 35.51192635 -9.66592559 31.76557881 -9.67342377 28.01805687 C-9.67649243 25.13380743 -9.66437812 22.24978364 -9.64729309 19.36558914 C-9.64026435 17.98370402 -9.63713841 16.60179333 -9.63798523 15.21989059 C-9.6361881 13.29072803 -9.61254565 11.36162304 -9.58789062 9.43261719 C-9.57947144 8.33517181 -9.57105225 7.23772644 -9.56237793 6.10702515 C-9.16796875 3.38818359 -9.16796875 3.38818359 -8.02722168 1.53466797 C-5.31656284 -0.1368249 -3.17180021 0.00675178 0 0 Z " fill="#31383F" transform="translate(298.16796875,386.61181640625)"/>
<path d="M0 0 C1.25132217 -0.00938095 2.50264435 -0.0187619 3.79188538 -0.02842712 C5.15350022 -0.01794991 6.51510845 -0.00658104 7.87670898 0.00561523 C9.27628148 0.00546022 10.67585442 0.00397089 12.07542419 0.00120544 C15.00506625 -0.00017769 17.93421821 0.01236572 20.86376953 0.03515625 C24.61896949 0.0635677 28.37335694 0.06079571 32.12861729 0.04806614 C35.01713504 0.04111232 37.9054649 0.04889424 40.79395866 0.06132317 C42.17864194 0.06583876 43.56334537 0.0661735 44.94803047 0.06225777 C46.88205412 0.05934816 48.81607402 0.07800328 50.75 0.09765625 C52.40069237 0.10576073 52.40069237 0.10576073 54.08473206 0.11402893 C56.81030273 0.50170898 56.81030273 0.50170898 58.66481018 1.66065979 C60.297384 4.28455175 60.19156251 6.2820355 60.19848633 9.36254883 C60.20794281 10.56744965 60.21739929 11.77235046 60.22714233 13.01376343 C60.22106964 14.31689484 60.21499695 15.62002625 60.20874023 16.96264648 C60.21076168 18.3140173 60.2136737 19.66538706 60.21743774 21.01675415 C60.22186088 23.84973532 60.21543282 26.68243269 60.20141602 29.51538086 C60.18435637 33.13923535 60.19414416 36.76242169 60.21213341 40.38625145 C60.22299979 43.177897 60.21951137 45.96938551 60.21175003 48.76103592 C60.20878586 50.74461553 60.21786998 52.72820133 60.22714233 54.71176147 C60.21295761 56.52856918 60.21295761 56.52856918 60.19848633 58.38208008 C60.19609955 59.44558685 60.19371277 60.50909363 60.19125366 61.60482788 C59.75454668 64.92569709 58.7818858 66.81663784 56.81030273 69.50170898 C54.17272496 70.82049787 52.10817652 70.69258091 49.15478516 70.77050781 C47.96982956 70.8033638 46.78487396 70.83621979 45.56401062 70.87007141 C43.63438225 70.91396248 43.63438225 70.91396248 41.66577148 70.95874023 C39.69015984 71.00414192 39.69015984 71.00414192 37.67463684 71.05046082 C34.88293489 71.11249413 32.09117039 71.16939904 29.29931641 71.22412109 C25.72776906 71.29554595 22.15725575 71.39055002 18.58642101 71.49089527 C15.83707621 71.56365029 13.08758072 71.61822848 10.33773232 71.66797447 C8.38265045 71.70813672 6.4280044 71.76795907 4.47343445 71.82807922 C3.27902237 71.84517441 2.08461029 71.86226959 0.85400391 71.87988281 C-0.19475418 71.90351395 -1.24351227 71.92714508 -2.3240509 71.95149231 C-6.05400376 71.36605001 -7.64803986 70.27912498 -10.18969727 67.50170898 C-10.81788635 64.65588379 -10.81788635 64.65588379 -10.82080078 61.32788086 C-10.83333389 60.07978638 -10.845867 58.83169189 -10.85877991 57.54577637 C-10.84651154 56.18732663 -10.83309151 54.82888687 -10.81860352 53.47045898 C-10.81943247 52.073281 -10.82189284 50.67610311 -10.82591248 49.27893066 C-10.82876876 46.3533791 -10.81408789 43.42859386 -10.78662109 40.50317383 C-10.75253684 36.75685637 -10.75855713 33.01190887 -10.77728367 29.26552582 C-10.78786243 26.38121156 -10.77890825 23.49721502 -10.76389885 20.6129303 C-10.75872289 19.2318669 -10.75919177 17.85077025 -10.7654438 16.4697113 C-10.77090541 14.53827616 -10.7476495 12.60682451 -10.72314453 10.67553711 C-10.71694595 9.57729614 -10.71074738 8.47905518 -10.70436096 7.34753418 C-9.57046489 1.07767286 -5.86465134 0.00088491 0 0 Z " fill="#323941" transform="translate(131.189697265625,386.498291015625)"/>
<path d="M0 0 C1.2946669 -0.00945648 2.5893338 -0.01891296 3.92323303 -0.02865601 C5.33741563 -0.02328689 6.75159543 -0.01713409 8.16577148 -0.01025391 C9.61401008 -0.01227456 11.06224768 -0.01518592 12.51048279 -0.01895142 C15.54435929 -0.02337383 18.57797072 -0.01694571 21.61181641 -0.00292969 C25.50499044 0.01417779 29.39754476 0.00431119 33.29069614 -0.01364708 C36.28037712 -0.02447434 39.26991051 -0.0210438 42.25959587 -0.0132637 C43.6953533 -0.01125953 45.13112403 -0.01372857 46.56686592 -0.02070236 C48.57061643 -0.02830023 50.5744138 -0.01467119 52.578125 0 C54.28996727 0.00358017 54.28996727 0.00358017 56.03639221 0.00723267 C56.92342331 0.13294647 57.81045441 0.25866028 58.72436523 0.38818359 C61.05564506 3.88510333 60.98624167 5.31274508 61.01489258 9.44848633 C61.02765228 10.69665634 61.04041199 11.94482635 61.05355835 13.2308197 C61.05661567 14.59447068 61.05884361 15.95812372 61.06030273 17.32177734 C61.06672989 18.72038409 61.07345819 20.11898947 61.08047485 21.51759338 C61.09244865 24.44885373 61.09615554 27.37999622 61.0949707 30.3112793 C61.09476741 34.06534953 61.12207882 37.81866362 61.15651512 41.57255459 C61.17876395 44.46107955 61.1828089 47.34942188 61.18175125 50.23802376 C61.18410991 51.62191438 61.1929485 53.00580983 61.20841599 54.38961601 C61.22803274 56.32580684 61.21972649 58.26221954 61.21020508 60.19848633 C61.21305511 61.2997435 61.21590515 62.40100067 61.21884155 63.53562927 C60.72436523 66.38818359 60.72436523 66.38818359 59.08085632 68.74467468 C56.04389426 70.86277062 54.22249123 70.88356747 50.53466797 70.87402344 C48.65768471 70.88325333 48.65768471 70.88325333 46.74278259 70.89266968 C45.38116723 70.8788743 44.01955918 70.86434037 42.65795898 70.84912109 C41.25838897 70.84673571 39.85881572 70.84583155 38.45924377 70.84634399 C35.52959069 70.84321927 32.60042814 70.82667871 29.67089844 70.79980469 C25.91581523 70.76579347 22.16126989 70.75817717 18.40605068 70.75969505 C15.51755133 70.75915127 12.62916955 70.74818329 9.7407093 70.73369217 C8.35602775 70.727329 6.97133288 70.7233864 5.5866375 70.72190475 C3.65259892 70.71756862 1.71861035 70.69848111 -0.21533203 70.67871094 C-1.31579361 70.67108734 -2.41625519 70.66346375 -3.55006409 70.65560913 C-6.27563477 70.38818359 -6.27563477 70.38818359 -9.27563477 68.38818359 C-9.65658569 65.70021057 -9.65658569 65.70021057 -9.66381836 62.24194336 C-9.67327484 60.95042862 -9.68273132 59.65891388 -9.69247437 58.32826233 C-9.68710428 56.91203506 -9.68095124 55.49581058 -9.67407227 54.07958984 C-9.67609251 52.63231764 -9.67900353 51.18504642 -9.68276978 49.73777771 C-9.68719694 46.70212121 -9.68075073 43.66672929 -9.66674805 40.63110352 C-9.64967081 36.7391197 -9.65948502 32.84775716 -9.67746544 28.95579624 C-9.68830594 25.96607279 -9.68485553 22.97649661 -9.67708206 19.98676872 C-9.67507998 18.55183781 -9.67753964 17.11689355 -9.68452072 15.68197823 C-9.69213694 13.67592753 -9.67847063 11.66983001 -9.66381836 9.66381836 C-9.66143158 8.52179459 -9.6590448 7.37977081 -9.65658569 6.20314026 C-9.27563477 3.38818359 -9.27563477 3.38818359 -8.14360046 1.5202179 C-5.39927092 -0.14291499 -3.19573451 0.00667895 0 0 Z " fill="#30373E" transform="translate(130.275634765625,470.61181640625)"/>
<path d="M0 0 C1.27472168 -0.00637985 2.54944336 -0.0127597 3.86279297 -0.01933289 C5.26009076 -0.02086133 6.65738906 -0.02197541 8.0546875 -0.02270508 C9.48193394 -0.02591696 10.90918004 -0.02928097 12.33642578 -0.03279114 C15.32910933 -0.03878284 18.321764 -0.04063095 21.31445312 -0.04003906 C25.1548307 -0.03993733 28.99502386 -0.05360114 32.83535767 -0.07081127 C35.78296769 -0.08191185 38.73053283 -0.08395889 41.67816162 -0.08342934 C43.09438718 -0.08461195 44.5106138 -0.08904939 45.92681885 -0.0967617 C47.90431349 -0.10652387 49.88186202 -0.10242912 51.859375 -0.09765625 C52.98585449 -0.09908127 54.11233398 -0.10050629 55.27294922 -0.10197449 C57.9296875 0.14526367 57.9296875 0.14526367 59.9296875 2.14526367 C60.19038391 4.83323669 60.19038391 4.83323669 60.2043457 8.29150391 C60.21387772 9.58301865 60.22340973 10.87453339 60.23323059 12.20518494 C60.23296917 13.62140937 60.23203216 15.03763382 60.23046875 16.45385742 C60.23435432 17.90112939 60.2386887 19.34840022 60.24345398 20.79566956 C60.25092223 23.8312652 60.2506207 26.86674455 60.24536133 29.90234375 C60.23956731 33.79429774 60.2564926 37.68577575 60.279706 41.57765102 C60.29443185 44.56735522 60.29531662 47.5569445 60.29219627 50.54667854 C60.29271012 51.9816183 60.29795974 53.41656438 60.30800819 54.85146904 C60.32033091 56.85748548 60.3116532 58.86359783 60.30200195 60.86962891 C60.30263138 62.01165268 60.3032608 63.15367645 60.3039093 64.33030701 C59.9296875 67.14526367 59.9296875 67.14526367 58.79191589 69.01223755 C56.07950057 70.66253857 53.92495368 70.53407358 50.76171875 70.54931641 C49.49030029 70.56200058 48.21888184 70.57468475 46.90893555 70.5877533 C45.52001788 70.585702 44.13110133 70.58271409 42.7421875 70.57885742 C41.31876373 70.58341787 39.89534217 70.58872303 38.47192383 70.59474182 C35.48932955 70.60367691 32.50700298 70.60124512 29.52441406 70.59130859 C25.70070699 70.57981163 21.8779224 70.60003809 18.05433655 70.62922573 C15.1152153 70.64756358 12.17631619 70.64730033 9.2371521 70.64158821 C7.82732854 70.64143473 6.41749017 70.64750114 5.00772095 70.65987968 C3.03775074 70.67474111 1.06762889 70.66150777 -0.90234375 70.64697266 C-2.58420776 70.6467234 -2.58420776 70.6467234 -4.30004883 70.64646912 C-7.0703125 70.14526367 -7.0703125 70.14526367 -8.93254089 68.48829651 C-10.36298153 65.54256525 -10.44456623 63.42926523 -10.44262695 60.1550293 C-10.44885574 58.94697632 -10.45508453 57.73892334 -10.46150208 56.4942627 C-10.45229233 55.19315552 -10.44308258 53.89204834 -10.43359375 52.55151367 C-10.43307483 51.19917807 -10.43359377 49.8468417 -10.43510437 48.49450684 C-10.43501476 45.66329657 -10.42460915 42.83237173 -10.40649414 40.0012207 C-10.38380713 36.37628456 -10.38326402 32.75176525 -10.39001179 29.12677765 C-10.39335692 26.33518789 -10.38671148 23.54369277 -10.37688255 20.75212097 C-10.37117378 18.76684348 -10.37246493 16.78154986 -10.37385559 14.79626465 C-10.36432358 13.58821167 -10.35479156 12.38015869 -10.3449707 11.13549805 C-10.34036331 10.07278687 -10.33575592 9.01007568 -10.33100891 7.91516113 C-10.06819012 5.1227134 -9.60049814 3.47695103 -8.0703125 1.14526367 C-5.31358829 -0.23309843 -3.08518434 0.01043969 0 0 Z " fill="#30373E" transform="translate(299.0703125,470.854736328125)"/>
<path d="M0 0 C1.84695213 -0.01395813 1.84695213 -0.01395813 3.73121643 -0.02819824 C5.07074128 -0.01261304 6.41025482 0.00397185 7.74975586 0.02148438 C9.12690629 0.02319595 10.50405997 0.02312932 11.88121033 0.0213623 C14.76389845 0.02301425 17.64580764 0.04168892 20.52832031 0.07324219 C24.22301708 0.11295806 27.91669581 0.11728273 31.61156559 0.10977936 C34.45378445 0.10671012 37.29577442 0.11882763 40.13793755 0.13591003 C41.50028485 0.14293965 42.86265809 0.14606461 44.22502327 0.1452179 C46.12795251 0.1470154 48.03082335 0.17066026 49.93359375 0.1953125 C51.01629044 0.20373169 52.09898712 0.21215088 53.2144928 0.2208252 C55.90209961 0.61523438 55.90209961 0.61523438 57.71263123 1.95397949 C60.10710375 5.29818706 60.04177233 8.42928993 60.07910156 12.40014648 C60.09835442 14.18230812 60.09835442 14.18230812 60.11799622 16.00047302 C60.12538315 17.28486771 60.13277008 18.56926239 60.14038086 19.89257812 C60.14845261 21.21060928 60.15652435 22.52864044 60.1648407 23.88661194 C60.1798507 26.67660391 60.18969791 29.46657056 60.19726562 32.2565918 C60.20834468 35.82902776 60.24276859 39.40084335 60.28243732 42.97305965 C60.31486708 46.38370799 60.31937807 49.79428749 60.32788086 53.20507812 C60.34538895 54.48744858 60.36289703 55.76981903 60.38093567 57.09104919 C60.3780101 58.28230911 60.37508453 59.47356903 60.37207031 60.70092773 C60.37793655 61.74889023 60.3838028 62.79685272 60.3898468 63.87657166 C59.76214153 67.40108816 58.80250262 68.54693561 55.90209961 70.61523438 C53.17689514 71.15440369 53.17689514 71.15440369 50.01953125 71.20874023 C48.83472672 71.23814194 47.64992218 71.26754364 46.42921448 71.2978363 C45.15311813 71.3084761 43.87702179 71.31911591 42.56225586 71.33007812 C41.24801132 71.3537294 39.93376678 71.37738068 38.57969666 71.40174866 C35.79988905 71.45003985 33.02035121 71.48456795 30.24023438 71.5090332 C26.68434408 71.54115525 23.12984654 71.60444415 19.57459354 71.67772579 C16.17482052 71.74413428 12.77489637 71.78624709 9.37475586 71.83007812 C8.10068375 71.85488754 6.82661163 71.87969696 5.51393127 71.90525818 C3.73199623 71.91626305 3.73199623 71.91626305 1.9140625 71.92749023 C0.87133682 71.93985214 -0.17138885 71.95221405 -1.24571228 71.96495056 C-4.5572793 71.55890841 -6.42391082 70.57844139 -9.09790039 68.61523438 C-10.4351231 65.94078895 -10.2471976 63.86273843 -10.27490234 60.86791992 C-10.28773758 59.66294357 -10.30057281 58.45796722 -10.313797 57.21647644 C-10.32118393 55.90818375 -10.32857086 54.59989105 -10.33618164 53.25195312 C-10.34025717 52.58704172 -10.3443327 51.92213032 -10.34853172 51.23707008 C-10.36939119 47.71705053 -10.3836928 44.19706994 -10.39306641 40.67700195 C-10.40412467 37.04522581 -10.43851699 33.41406343 -10.47823811 29.78250408 C-10.50441413 26.98660664 -10.51275909 24.19085515 -10.51634789 21.39484596 C-10.52357334 19.4067525 -10.55000917 17.41875884 -10.57673645 15.43083191 C-10.57381088 14.21639908 -10.57088531 13.00196625 -10.56787109 11.75073242 C-10.57373734 10.68420944 -10.57960358 9.61768646 -10.58564758 8.5188446 C-9.49941775 2.05240443 -6.28413539 -0.01191554 0 0 Z " fill="#2A6EB2" transform="translate(215.097900390625,386.384765625)"/>
<path d="M0 0 C1.2113562 -0.00637985 2.4227124 -0.0127597 3.67077637 -0.01933289 C5.63488464 -0.02100212 5.63488464 -0.02100212 7.63867188 -0.02270508 C8.99483272 -0.02591846 10.35099321 -0.02928259 11.70715332 -0.03279114 C14.5484294 -0.03877682 17.38967509 -0.04063155 20.23095703 -0.04003906 C23.87279393 -0.03993733 27.51443635 -0.05360366 31.15622711 -0.07081127 C33.9563283 -0.08192414 36.75638231 -0.08395851 39.5565033 -0.08342934 C41.55237266 -0.08518415 43.5482273 -0.09602696 45.54406738 -0.10697937 C47.36110168 -0.10236443 47.36110168 -0.10236443 49.21484375 -0.09765625 C50.81676575 -0.09979378 50.81676575 -0.09979378 52.4510498 -0.10197449 C55.10742188 0.14526367 55.10742188 0.14526367 58.10742188 2.14526367 C58.48164368 4.87792969 58.48164368 4.87792969 58.47973633 8.39916992 C58.48907951 10.3713147 58.48907951 10.3713147 58.49861145 12.38330078 C58.48992366 13.82479225 58.4806057 15.26628004 58.47070312 16.70776367 C58.47018468 18.17985026 58.47070177 19.65193754 58.47221375 21.12402344 C58.47212396 24.2109611 58.46168204 27.29763793 58.44360352 30.38452148 C58.4209159 34.34600272 58.42037148 38.30710266 58.42712116 42.26863098 C58.43045898 45.3089132 58.42383463 48.34910811 58.41399193 51.38937378 C58.41013639 52.8502456 58.40899317 54.31112713 58.41057777 55.77200317 C58.41094766 57.81181001 58.39686826 59.85160416 58.38208008 61.89135742 C58.37516899 63.63437134 58.37516899 63.63437134 58.36811829 65.41259766 C58.10742188 68.14526367 58.10742188 68.14526367 56.10742188 70.14526367 C53.41944885 70.40596008 53.41944885 70.40596008 49.96118164 70.41992188 C48.6696669 70.42945389 47.37815216 70.4389859 46.04750061 70.44880676 C44.63127617 70.44854534 43.21505172 70.44760833 41.79882812 70.44604492 C40.35155616 70.44993049 38.90428533 70.45426487 37.45701599 70.45903015 C34.42142035 70.4664984 31.385941 70.46619687 28.3503418 70.4609375 C24.4583878 70.45514348 20.5669098 70.47206877 16.67503452 70.49528217 C13.68533032 70.51000802 10.69574104 70.51089279 7.706007 70.50777245 C6.27106725 70.50828629 4.83612117 70.51353592 3.40121651 70.52358437 C1.39520007 70.53590708 -0.61091229 70.52722937 -2.61694336 70.51757812 C-3.75896713 70.51820755 -4.90099091 70.51883698 -6.07762146 70.51948547 C-8.89257812 70.14526367 -8.89257812 70.14526367 -10.76054382 68.98829651 C-12.37370901 66.36194816 -12.27385473 64.35745044 -12.28076172 61.28442383 C-12.2902182 60.07952301 -12.29967468 58.87462219 -12.30941772 57.63320923 C-12.30334503 56.33007782 -12.29727234 55.02694641 -12.29101562 53.68432617 C-12.29303707 52.33295535 -12.29594909 50.9815856 -12.29971313 49.63021851 C-12.30413627 46.79723734 -12.29770821 43.96453996 -12.28369141 41.1315918 C-12.26663176 37.50773731 -12.27641955 33.88455097 -12.2944088 30.26072121 C-12.30527518 27.46907566 -12.30178676 24.67758715 -12.29402542 21.88593674 C-12.29106125 19.90235713 -12.30014537 17.91877133 -12.30941772 15.93521118 C-12.29996124 14.72400604 -12.29050476 13.5128009 -12.28076172 12.26489258 C-12.27837494 11.2013858 -12.27598816 10.13787903 -12.27352905 9.04214478 C-11.83392056 5.69921151 -10.9302851 3.81610637 -8.89257812 1.14526367 C-5.68646061 0.07655783 -3.37057061 0.01203049 0 0 Z " fill="#26BCC7" transform="translate(300.892578125,554.854736328125)"/>
<path d="M0 0 C2.5226593 -0.38095093 2.5226593 -0.38095093 5.74731445 -0.38818359 C7.55477898 -0.40236832 7.55477898 -0.40236832 9.39875793 -0.4168396 C11.36119698 -0.40773056 11.36119698 -0.40773056 13.36328125 -0.3984375 C14.71608131 -0.40045829 16.06888031 -0.40336977 17.42167664 -0.40713501 C20.26063379 -0.41156272 23.09930811 -0.40511639 25.93823242 -0.39111328 C29.56996247 -0.37406957 33.20102506 -0.38382834 36.83273029 -0.40183067 C39.62866697 -0.4126986 42.42444688 -0.40920765 45.22038841 -0.4014473 C47.20839751 -0.39848207 49.19641278 -0.40756893 51.18440247 -0.4168396 C52.3988353 -0.40738312 53.61326813 -0.39792664 54.86450195 -0.38818359 C55.93102493 -0.38579681 56.99754791 -0.38341003 58.09638977 -0.38095093 C61.44749044 0.05871032 63.29836352 0.99535892 66 3 C68.30675546 6.46013319 68.26138695 7.810459 68.29052734 11.89257812 C68.30328705 13.10393433 68.31604675 14.31529053 68.32919312 15.56335449 C68.33141876 16.87276001 68.33364441 18.18216553 68.3359375 19.53125 C68.34236426 20.88741192 68.34909253 22.24357245 68.35610962 23.59973145 C68.36808108 26.44103207 68.37179046 29.2822111 68.37060547 32.12353516 C68.37040198 35.76561262 68.3977337 39.40691232 68.43214989 43.04880524 C68.45437585 45.8489338 68.4584444 48.64887367 68.45738602 51.44908142 C68.46089573 53.44499478 68.48258175 55.44084926 68.50448608 57.43664551 C68.49833282 58.64800171 68.49217957 59.85935791 68.48583984 61.10742188 C68.48868988 62.17536987 68.49153992 63.24331787 68.49447632 64.34362793 C68 67 68 67 66.36322021 68.84402466 C63.32424681 70.33054644 61.0854883 70.38098765 57.70263672 70.38818359 C56.4280661 70.39764008 55.15349548 70.40709656 53.84030151 70.4168396 C52.453427 70.41147089 51.06655533 70.40531819 49.6796875 70.3984375 C48.25529837 70.4004588 46.83091025 70.40337071 45.40652466 70.40713501 C42.42570107 70.41155289 39.44514761 70.40514296 36.46435547 70.39111328 C32.6395878 70.37399019 28.81545024 70.38388507 24.99070549 70.40183067 C22.05163804 70.41265672 19.11272074 70.40922824 16.17364883 70.4014473 C14.76301118 70.39944361 13.35235996 70.40191048 11.94173813 70.40888596 C9.97401939 70.41648355 8.00625293 70.40285505 6.03857422 70.38818359 C4.35790359 70.38460342 4.35790359 70.38460342 2.64328003 70.38095093 C1.77099762 70.25523712 0.89871521 70.12952332 0 70 C-2.35206313 66.4719053 -2.25286015 65.00988772 -2.25878906 60.83203125 C-2.26509338 59.56061279 -2.27139771 58.28919434 -2.27789307 56.97924805 C-2.27431328 55.59033062 -2.27021131 54.20141446 -2.265625 52.8125 C-2.26697226 51.3890781 -2.2689133 49.96565665 -2.27142334 48.54223633 C-2.27437175 45.55968849 -2.27008612 42.57726047 -2.26074219 39.59472656 C-2.24934771 35.77127036 -2.25590871 31.94809495 -2.26788712 28.12464905 C-2.27511339 25.18556604 -2.27281427 22.24654961 -2.26763153 19.3074646 C-2.26629716 17.89765388 -2.26793535 16.48783711 -2.27259064 15.07803345 C-2.27766816 13.10801305 -2.26855731 11.13797147 -2.25878906 9.16796875 C-2.25719788 8.04672607 -2.25560669 6.9254834 -2.25396729 5.77026367 C-2 3 -2 3 0 0 Z " fill="#333A42" transform="translate(123,555)"/>
<path d="M0 0 C1.37572118 0.00171212 2.75144563 0.00164439 4.12716675 -0.00012207 C7.00387983 0.00152818 9.87981075 0.02017397 12.75634766 0.05175781 C16.44316904 0.09151066 20.12897051 0.09579297 23.81596565 0.08829498 C26.65389347 0.08522619 29.49159198 0.09734107 32.32946396 0.11442566 C33.68902015 0.12145385 35.04860232 0.12458041 36.40817642 0.12373352 C38.30620714 0.12553085 40.20417933 0.14917457 42.10205078 0.17382812 C43.7215715 0.18645691 43.7215715 0.18645691 45.37380981 0.19934082 C48.0546875 0.59375 48.0546875 0.59375 49.90345764 1.7469635 C51.55866841 4.40222898 51.42881436 6.44466429 51.42700195 9.56225586 C51.43634514 11.40447975 51.43634514 11.40447975 51.44587708 13.28392029 C51.43718799 14.62548222 51.42786989 15.96704021 51.41796875 17.30859375 C51.41745001 18.68477884 51.41796826 20.06096469 51.41947937 21.43714905 C51.41938967 24.32141178 51.40896557 27.2053949 51.39086914 30.08959961 C51.36820311 33.78294352 51.36763413 37.47587814 51.37438679 41.16927242 C51.37773217 44.01147586 51.37108565 46.85358637 51.36125755 49.69577217 C51.35741346 51.05730261 51.35625406 52.4188434 51.3578434 53.78037834 C51.35821516 55.68555908 51.34409405 57.59072592 51.3293457 59.49584961 C51.32243462 61.12108803 51.32243462 61.12108803 51.31538391 62.77915955 C51.05450049 65.59576899 50.60164913 67.24589593 49.0546875 69.59375 C46.32818597 70.95700076 44.14421344 70.74357798 41.09204102 70.77075195 C39.84056778 70.78358719 38.58909454 70.79642242 37.29969788 70.80964661 C35.92766718 70.81781248 34.55563202 70.82525651 33.18359375 70.83203125 C32.49412092 70.83610678 31.80464809 70.8401823 31.09428215 70.84438133 C27.44689101 70.86523566 23.79953746 70.87954161 20.15209961 70.88891602 C16.38113358 70.89999573 12.61075519 70.93441432 8.83999729 70.97408772 C5.94295639 71.00020021 3.04605686 71.00860286 0.14890862 71.01219749 C-1.24140466 71.01707533 -2.63171113 71.02872343 -4.02190971 71.04723549 C-5.96555311 71.07151402 -7.90948174 71.06825328 -9.85327148 71.0637207 C-11.51301247 71.07252007 -11.51301247 71.07252007 -13.20628357 71.08149719 C-15.9453125 70.59375 -15.9453125 70.59375 -17.79981995 68.93777466 C-19.2335264 66.00397707 -19.33929419 63.88438809 -19.36523438 60.61938477 C-19.38114624 59.41455948 -19.39705811 58.20973419 -19.41345215 56.96839905 C-19.41365356 55.67042892 -19.41385498 54.3724588 -19.4140625 53.03515625 C-19.42116676 51.68521306 -19.42886614 50.33527287 -19.43713379 48.9853363 C-19.45056855 46.15835167 -19.45215207 43.33164626 -19.44628906 40.50463867 C-19.44039339 36.88835673 -19.4709805 33.2734176 -19.51140594 29.65739536 C-19.53730255 26.87001882 -19.54015872 24.0829648 -19.53651428 21.29548454 C-19.53902307 19.31626387 -19.56370759 17.33711138 -19.58874512 15.35804749 C-19.55082329 10.43524793 -19.5048101 6.7085625 -17.27978516 2.27514648 C-11.75626064 -0.51007195 -6.07303429 -0.07971473 0 0 Z " fill="#28A4C8" transform="translate(223.9453125,554.40625)"/>
<path d="M0 0 C1.25132217 -0.01260864 2.50264435 -0.02521729 3.79188538 -0.03820801 C5.15349899 -0.03104895 6.51510745 -0.02284515 7.87670898 -0.01367188 C9.27628346 -0.01636729 10.67585612 -0.02025012 12.07542419 -0.02526855 C15.00505445 -0.03115951 17.93419615 -0.02261323 20.86376953 -0.00390625 C24.61911339 0.01890525 28.37331514 0.0057454 32.12861729 -0.01819611 C35.01715204 -0.03264763 37.90541576 -0.02805168 40.79395866 -0.01768494 C42.17865064 -0.0150169 43.56336724 -0.01829019 44.94803047 -0.02760315 C46.88201554 -0.03775826 48.81608694 -0.01953582 50.75 0 C51.85046158 0.00318237 52.95092316 0.00636475 54.08473206 0.00964355 C56.81030273 0.51757812 56.81030273 0.51757812 58.66679382 2.42926025 C59.91669454 4.71187473 60.17347546 5.95296503 60.13842773 8.53320312 C60.13415771 9.35336914 60.1298877 10.17353516 60.12548828 11.01855469 C60.10397705 11.92573242 60.08246582 12.83291016 60.06030273 13.76757812 C60.04717041 14.72889648 60.03403809 15.69021484 60.02050781 16.68066406 C59.98537983 18.93502393 59.94210734 21.18926457 59.89282227 23.44335938 C59.80865582 27.33426088 59.76199848 31.22524631 59.7159729 35.11676025 C59.6696192 38.75427777 59.60841828 42.39145145 59.54382324 46.02868652 C59.51314952 47.85422028 59.4868617 49.67983302 59.46496582 51.50549316 C59.4316505 54.0985553 59.37918855 56.69057119 59.32202148 59.28320312 C59.31561142 60.06977295 59.30920135 60.85634277 59.30259705 61.66674805 C59.1574954 67.00229114 59.1574954 67.00229114 57.66304016 69.22029114 C54.99679324 71.08719758 52.97141721 70.90578006 49.73413086 70.92163086 C48.48273315 70.93431503 47.23133545 70.94699921 45.9420166 70.96006775 C44.57519364 70.95801645 43.2083718 70.95502854 41.84155273 70.95117188 C40.44054918 70.95573241 39.03954786 70.9610376 37.6385498 70.96705627 C34.70303251 70.97599099 31.76778723 70.97356 28.83227539 70.96362305 C25.06909688 70.95212606 21.3068557 70.97235267 17.54380035 71.00154018 C14.6510013 71.01987889 11.75842791 71.01961462 8.86558533 71.01390266 C7.47809025 71.01374919 6.09058012 71.01981475 4.70314026 71.03219414 C2.7643039 71.04705715 0.82531346 71.03382138 -1.11352539 71.01928711 C-2.21700317 71.01912094 -3.32048096 71.01895477 -4.45739746 71.01878357 C-7.18969727 70.51757812 -7.18969727 70.51757812 -9.04420471 68.86634827 C-10.49209033 65.8975376 -10.57723373 63.7384306 -10.59375 60.43554688 C-10.60643417 59.20747314 -10.61911835 57.97939941 -10.63218689 56.71411133 C-10.63013552 55.37776521 -10.62714755 54.04142025 -10.62329102 52.70507812 C-10.62785357 51.33031964 -10.63315937 49.95556344 -10.63917542 48.58081055 C-10.64810162 45.70254233 -10.64568878 42.82455165 -10.63574219 39.94628906 C-10.62424533 36.26057962 -10.64447583 32.57582724 -10.67365932 28.89024353 C-10.69201731 26.05230645 -10.69172993 23.21459899 -10.6860218 20.37661743 C-10.68586858 19.01785946 -10.69191425 17.65908593 -10.70431328 16.30038452 C-10.71921287 14.40017968 -10.70592147 12.49981719 -10.69140625 10.59960938 C-10.69124008 9.5191333 -10.69107391 8.43865723 -10.69090271 7.32543945 C-9.57598429 1.07942524 -5.82358794 0.01682879 0 0 Z " fill="#2A92C6" transform="translate(215.189697265625,470.482421875)"/>
<path d="M0 0 C5.61 0 11.22 0 17 0 C22.85801922 7.39226234 22.85801922 7.39226234 24.54296875 11.03515625 C27.23117707 16.57602009 30.38806608 21.78969601 33.5625 27.0625 C34.6649365 28.93231244 35.76523122 30.80338948 36.86328125 32.67578125 C39.99871667 38.00803075 43.17502569 43.31485997 46.37329102 48.60961914 C48.90054023 52.80108046 48.90054023 52.80108046 50 55 C50.33 36.85 50.66 18.7 51 0 C55.95 0 60.9 0 66 0 C66 28.05 66 56.1 66 85 C60.72 85 55.44 85 50 85 C46.22242097 80.85654618 43.91847893 77.54001785 41.5 72.6875 C40.81417972 71.42599595 40.12208955 70.16788226 39.42407227 68.91308594 C37.9776577 66.29828217 36.56306585 63.66962924 35.16845703 61.02685547 C32.38958904 55.80582257 29.3474609 50.74817619 26.29858398 45.68188477 C23.17001617 40.47191841 20.08974578 35.23308294 17 30 C16.67 48.15 16.34 66.3 16 85 C10.72 85 5.44 85 0 85 C0 56.95 0 28.9 0 0 Z " fill="#2D3439" transform="translate(713,456)"/>
<path d="M0 0 C6.47489034 4.9817583 10.97214496 11.1405468 12.27734375 19.30078125 C13.4898723 30.74487096 12.38180174 41.67057802 5.8125 51.39453125 C1.50969853 56.25187038 -3.75659265 59.72368359 -10.27734375 60.7109375 C-16.46880003 61.04825761 -21.72322126 59.22480039 -27.1875 56.39453125 C-27.8475 55.73453125 -28.5075 55.07453125 -29.1875 54.39453125 C-29.5175 63.30453125 -29.8475 72.21453125 -30.1875 81.39453125 C-35.1375 81.39453125 -40.0875 81.39453125 -45.1875 81.39453125 C-45.1875 54.00453125 -45.1875 26.61453125 -45.1875 -1.60546875 C-40.5675 -1.60546875 -35.9475 -1.60546875 -31.1875 -1.60546875 C-30.8575 0.37453125 -30.5275 2.35453125 -30.1875 4.39453125 C-29.1665625 3.49734375 -29.1665625 3.49734375 -28.125 2.58203125 C-19.92656976 -3.52318276 -9.19045216 -5.41853742 0 0 Z " fill="#2F3439" transform="translate(508.1875,482.60546875)"/>
<path d="M0 0 C6.10704608 5.03806557 9.1559379 9.78812621 11.66015625 17.30078125 C12.56303927 28.44395782 12.57954855 37.92801631 5.66015625 47.30078125 C0.54673417 53.0650025 -5.50454814 57.18624431 -13.390625 57.76953125 C-14.81082175 57.8038403 -16.23179073 57.81362821 -17.65234375 57.80078125 C-18.3985498 57.79433594 -19.14475586 57.78789063 -19.91357422 57.78125 C-28.40710803 57.50114214 -34.2980253 54.74141465 -40.21484375 48.61328125 C-47.08893009 39.88660427 -48.35785695 31.2349971 -47.33984375 20.30078125 C-45.98461869 12.16943092 -42.5680047 5.72357821 -36.125 0.5078125 C-25.70336976 -6.79253082 -10.52686821 -7.64472065 0 0 Z " fill="#2E3439" transform="translate(693.33984375,484.69921875)"/>
<path d="M0 0 C15.90662776 -1.35056273 15.90662776 -1.35056273 20.1796875 1.40625 C21.76363269 3.84308876 22.83382207 6.33445044 24 9 C25.73391618 12.01401725 27.56468593 14.96889705 29.375 17.9375 C30.26480434 19.4216116 31.14809524 20.90965661 32.0234375 22.40234375 C32.40419434 23.04679443 32.78495117 23.69124512 33.17724609 24.35522461 C34 26 34 26 34 28 C34.66 28 35.32 28 36 28 C36.3403125 26.83210938 36.3403125 26.83210938 36.6875 25.640625 C38.42744677 20.81434409 40.6920706 16.32629431 43 11.75 C43.45117188 10.83992188 43.90234375 9.92984375 44.3671875 8.9921875 C44.80289063 8.12335938 45.23859375 7.25453125 45.6875 6.359375 C46.08324219 5.57014648 46.47898437 4.78091797 46.88671875 3.96777344 C48 2 48 2 50 0 C51.87939453 -0.22705078 51.87939453 -0.22705078 54.1328125 -0.1953125 C55.34130859 -0.18564453 55.34130859 -0.18564453 56.57421875 -0.17578125 C57.83685547 -0.15064453 57.83685547 -0.15064453 59.125 -0.125 C60.39923828 -0.11146484 60.39923828 -0.11146484 61.69921875 -0.09765625 C63.79959884 -0.07405647 65.89983444 -0.03818483 68 0 C66.60432835 3.70346195 64.92795392 7.08714331 62.98828125 10.53515625 C62.09786133 12.12166992 62.09786133 12.12166992 61.18945312 13.74023438 C60.57005859 14.83658203 59.95066406 15.93292969 59.3125 17.0625 C58.41241211 18.66641602 58.41241211 18.66641602 57.49414062 20.30273438 C56.89408203 21.36943359 56.29402344 22.43613281 55.67578125 23.53515625 C55.07854248 24.60185547 54.48130371 25.66855469 53.8659668 26.76757812 C52.59396409 28.9710736 51.27251282 31.14658028 49.90942383 33.29492188 C49.25095459 34.34357422 48.59248535 35.39222656 47.9140625 36.47265625 C47.30643066 37.40730713 46.69879883 38.34195801 46.07275391 39.30493164 C44.69795661 41.98921837 44.69795661 41.98921837 45.73291016 44.86254883 C47.26904591 47.7652982 49.08664799 50.33137746 51 53 C52.29240605 55.23767825 53.56230457 57.48846761 54.8125 59.75 C58.140319 65.60262435 61.60034234 71.37421734 65.1184082 77.11425781 C66.70774719 79.72882839 68.0284817 82.08544511 69 85 C56.80480525 86.52439934 56.80480525 86.52439934 51 85 C47.4329323 81.82065705 45.73705688 78.29193226 43.87402344 73.93017578 C42.35367184 70.57266189 40.39082772 67.47105116 38.5 64.3125 C35 58.34115658 35 58.34115658 35 56 C34.34 56 33.68 56 33 56 C32.72148193 56.72759521 32.44296387 57.45519043 32.15600586 58.20483398 C30.30639061 62.67711381 27.90223151 66.8314601 25.5625 71.0625 C25.07201172 71.96033203 24.58152344 72.85816406 24.07617188 73.78320312 C23.59857422 74.65009766 23.12097656 75.51699219 22.62890625 76.41015625 C22.19650635 77.19527588 21.76410645 77.98039551 21.31860352 78.78930664 C18.74323576 83.10701726 18.74323576 83.10701726 17 85 C15.00708008 85.45410156 15.00708008 85.45410156 12.76953125 85.390625 C11.96708984 85.37773438 11.16464844 85.36484375 10.33789062 85.3515625 C9.50451172 85.31804687 8.67113281 85.28453125 7.8125 85.25 C6.96751953 85.23195313 6.12253906 85.21390625 5.25195312 85.1953125 C3.16748427 85.14820586 1.08359856 85.07646233 -1 85 C0.51647213 79.34933598 3.34664678 74.97199397 6.5 70.125 C7.02811279 69.29726074 7.55622559 68.46952148 8.1003418 67.61669922 C10.71839946 63.51453968 13.36903177 59.4357596 16.05078125 55.375 C16.75074219 54.29774658 16.75074219 54.29774658 17.46484375 53.19873047 C18.34413378 51.84570701 19.23558306 50.50048586 20.140625 49.16455078 C21.7821281 46.62358471 22.98164007 44.6641975 23.06640625 41.59765625 C21.43469043 37.62296387 19.32221018 33.99897617 17.125 30.3125 C16.64119873 29.48758057 16.15739746 28.66266113 15.65893555 27.81274414 C11.65670206 21.01933509 7.54401333 14.29173526 3.35400391 7.61254883 C2.91362793 6.90380615 2.47325195 6.19506348 2.01953125 5.46484375 C1.62870361 4.842146 1.23787598 4.21944824 0.83520508 3.57788086 C0 2 0 2 0 0 Z " fill="#2E3439" transform="translate(847,456)"/>
<path d="M0 0 C5.3977985 4.07833664 8.63325219 8.95444408 10.7578125 15.328125 C10.80102563 16.99423136 10.8089829 18.66224404 10.7578125 20.328125 C8.63344202 20.83079294 6.50829524 21.3301811 4.3828125 21.828125 C3.19945312 22.1065625 2.01609375 22.385 0.796875 22.671875 C-2.2421875 23.328125 -2.2421875 23.328125 -4.2421875 23.328125 C-4.41234375 22.78542969 -4.5825 22.24273437 -4.7578125 21.68359375 C-5.00015625 20.96816406 -5.2425 20.25273437 -5.4921875 19.515625 C-5.84023438 18.45408203 -5.84023438 18.45408203 -6.1953125 17.37109375 C-7.51930887 14.78732472 -8.72160953 13.76277971 -11.2421875 12.328125 C-16.46838454 11.39348469 -20.86252739 11.48950807 -25.4296875 14.265625 C-27.5095968 17.77995451 -27.83571793 20.04065358 -27.90625 24.046875 C-26.90801013 27.47612256 -25.147084 29.39415858 -22.2421875 31.328125 C-17.58209472 33.30156974 -12.72140656 34.66893365 -7.87695312 36.11328125 C0.25838876 38.71023078 5.95459164 42.09831451 10.73046875 49.3046875 C13.06733785 56.18201328 13.20812984 65.1767174 10.1953125 71.890625 C5.42083377 79.53310658 -1.6116726 83.28099478 -10.2421875 85.328125 C-20.4687548 86.45501947 -30.10574644 84.83384475 -38.2421875 78.328125 C-42.60004668 74.19703225 -45.28252767 69.98936451 -47.2421875 64.328125 C-47.2421875 63.338125 -47.2421875 62.348125 -47.2421875 61.328125 C-45.51537313 60.82006053 -43.78560771 60.32202033 -42.0546875 59.828125 C-41.09175781 59.5496875 -40.12882812 59.27125 -39.13671875 58.984375 C-36.38872874 58.36134892 -34.04620334 58.20509688 -31.2421875 58.328125 C-30.87867188 59.14216797 -30.87867188 59.14216797 -30.5078125 59.97265625 C-30.17265625 60.68808594 -29.8375 61.40351562 -29.4921875 62.140625 C-29.16734375 62.84832031 -28.8425 63.55601562 -28.5078125 64.28515625 C-26.98944335 66.73610399 -25.75583028 67.90622199 -23.2421875 69.328125 C-20.36899006 69.80191296 -20.36899006 69.80191296 -17.3046875 69.703125 C-15.77521484 69.71472656 -15.77521484 69.71472656 -14.21484375 69.7265625 C-10.82930251 69.27278431 -8.97353544 68.35169756 -6.2421875 66.328125 C-3.48954854 62.19916656 -3.97113578 58.8353534 -4.4921875 54.015625 C-5.56112642 51.61051242 -6.83955892 51.38623626 -9.2421875 50.328125 C-11.40090318 49.53529772 -13.56871047 48.76704105 -15.7421875 48.015625 C-18.24248342 47.12061793 -20.74248424 46.22478602 -23.2421875 45.328125 C-24.34433594 44.9465625 -25.44648438 44.565 -26.58203125 44.171875 C-34.43258041 41.2415313 -39.01271335 37.56922446 -43.40234375 30.4453125 C-45.59783332 24.91063647 -44.76334096 18.16749015 -43.1796875 12.578125 C-39.42808109 6.28510779 -35.18198277 0.66033522 -28.16015625 -2.046875 C-19.36059411 -3.93165404 -8.05517231 -4.48562537 0 0 Z " fill="#2D3338" transform="translate(444.2421875,457.671875)"/>
<path d="M0 0 C15.84 0 31.68 0 48 0 C48 4.62 48 9.24 48 14 C37.44 14 26.88 14 16 14 C16 21.26 16 28.52 16 36 C26.23 36 36.46 36 47 36 C47 40.29 47 44.58 47 49 C36.77 49 26.54 49 16 49 C16 56.26 16 63.52 16 71 C27.22 71 38.44 71 50 71 C50 75.62 50 80.24 50 85 C33.5 85 17 85 0 85 C0 56.95 0 28.9 0 0 Z " fill="#2C3237" transform="translate(790,456)"/>
<path d="M0 0 C5.02086159 3.76246843 7.63990241 8.97962787 8.70947266 15.03393555 C9.22424175 19.45168501 9.29368442 23.74223922 9.265625 28.18359375 C9.26421005 29.03933487 9.2627951 29.89507599 9.26133728 30.77674866 C9.25577865 33.48661931 9.243234 36.19640468 9.23046875 38.90625 C9.2254484 40.75325401 9.22088643 42.60025932 9.21679688 44.44726562 C9.2058228 48.95445951 9.18858705 53.46159034 9.16796875 57.96875 C4.54796875 57.96875 -0.07203125 57.96875 -4.83203125 57.96875 C-5.16203125 56.31875 -5.49203125 54.66875 -5.83203125 52.96875 C-6.55390625 53.5875 -7.27578125 54.20625 -8.01953125 54.84375 C-14.41394412 59.67508417 -21.03828448 59.99254395 -28.83203125 58.96875 C-34.31459654 56.88806505 -37.80311808 53.78606004 -40.39453125 48.53125 C-42.45059799 42.86522277 -42.64921079 38.34285215 -40.20703125 32.78125 C-37.08637911 27.18783197 -32.80152843 25.12206411 -26.83203125 23.28125 C-20.24604898 21.60977312 -13.59976127 21.25526704 -6.83203125 20.96875 C-7.06063183 19.50690942 -7.31573517 18.04919581 -7.58203125 16.59375 C-7.72125 15.78164063 -7.86046875 14.96953125 -8.00390625 14.1328125 C-8.64676432 11.83593764 -8.64676432 11.83593764 -10.69140625 10.703125 C-13.90370527 9.60109541 -16.46627982 9.60813378 -19.83203125 9.96875 C-22.73920198 12.18738029 -23.67184768 13.48819929 -24.83203125 16.96875 C-26.60278042 16.99580729 -28.37364836 17.01517195 -30.14453125 17.03125 C-31.13066406 17.04285156 -32.11679687 17.05445313 -33.1328125 17.06640625 C-35.83203125 16.96875 -35.83203125 16.96875 -38.83203125 15.96875 C-38.71827725 9.59852605 -37.27699089 6.28753481 -32.87109375 1.6640625 C-23.74813688 -5.92092463 -9.99958948 -5.62876679 0 0 Z " fill="#31373B" transform="translate(565.83203125,483.03125)"/>
<path d="M0 0 C1.381875 0.185625 2.76375 0.37125 4.1875 0.5625 C4.1875 6.5025 4.1875 12.4425 4.1875 18.5625 C9.1375 18.5625 14.0875 18.5625 19.1875 18.5625 C19.1875 22.5225 19.1875 26.4825 19.1875 30.5625 C14.2375 30.5625 9.2875 30.5625 4.1875 30.5625 C4.28433952 35.22608737 4.38700359 39.88876504 4.50488281 44.55175781 C4.54320585 46.13859138 4.57805288 47.72551281 4.609375 49.3125 C4.65495431 51.59146566 4.71295838 53.86982468 4.7734375 56.1484375 C4.78498871 56.85994965 4.79653992 57.57146179 4.80844116 58.30453491 C4.82158239 62.38353657 4.82158239 62.38353657 7.1875 65.5625 C11.19944366 65.84033543 15.16197362 65.6481495 19.1875 65.5625 C19.1875 69.5225 19.1875 73.4825 19.1875 77.5625 C12.57902612 80.4995995 4.01285203 80.96951827 -2.8125 78.375 C-7.05082717 75.814344 -9.24902201 73.25293398 -10.8125 68.5625 C-10.8978013 65.68555329 -10.92835645 62.83349818 -10.91015625 59.95703125 C-10.9087413 59.11782639 -10.90732635 58.27862152 -10.90586853 57.41398621 C-10.90027215 54.73428784 -10.88772035 52.0546731 -10.875 49.375 C-10.86998453 47.55794392 -10.86542171 45.74088652 -10.86132812 43.92382812 C-10.85030391 39.47001987 -10.83304178 35.01627411 -10.8125 30.5625 C-13.4525 30.5625 -16.0925 30.5625 -18.8125 30.5625 C-18.8125 26.6025 -18.8125 22.6425 -18.8125 18.5625 C-15.8425 18.5625 -12.8725 18.5625 -9.8125 18.5625 C-9.8125 12.6225 -9.8125 6.6825 -9.8125 0.5625 C-5.80028676 -0.23994265 -3.82357745 -0.51361488 0 0 Z " fill="#2C3136" transform="translate(597.8125,462.4375)"/>
<path d="M0 0 C4.96470614 2.39041407 6.98821615 4.91759869 9 10 C11.26198404 17.59835484 10.70926636 25.13360721 7.14453125 32.1875 C4.96672791 35.63630802 2.78567037 36.73810988 -1 38 C-6.71592544 38.53923825 -9.55802329 37.63434458 -14 34 C-17.93425164 29.92523937 -18.97046598 25.36862822 -19.0390625 19.8671875 C-18.73824437 13.57865612 -18.43632941 8.80602353 -14 4 C-13.278125 3.21625 -12.55625 2.4325 -11.8125 1.625 C-7.82662985 -0.6779472 -4.49779796 -0.77739718 0 0 Z " fill="#F4F4F5" transform="translate(680,492)"/>
<path d="M0 0 C4.03273454 3.06838497 6.02239043 6.38557767 8 11 C8.90107525 17.99753937 9.04203559 25.27941054 5.2578125 31.4453125 C2.68198978 34.62909338 0.11902778 36.59314667 -3.953125 37.375 C-9.02907467 37.68498166 -12.12379289 36.42548536 -16 33 C-19.18064514 27.97912446 -19.49007316 23.82165065 -19.4375 18.0625 C-19.45748047 17.28970703 -19.47746094 16.51691406 -19.49804688 15.72070312 C-19.49322494 10.01635942 -18.27662591 6.68174833 -15 2 C-10.20979372 -1.56480468 -5.58002515 -1.68122754 0 0 Z " fill="#F4F4F4" transform="translate(497,493)"/>
<path d="M0 0 C4.62 0 9.24 0 14 0 C14 19.8 14 39.6 14 60 C9.38 60 4.76 60 0 60 C0 40.2 0 20.4 0 0 Z " fill="#2B3035" transform="translate(625,481)"/>
<path d="M0 0 C-0.66 0.66 -1.32 1.32 -2 2 C-3.32 2 -4.64 2 -6 2 C-6 2.99 -6 3.98 -6 5 C-4.68 4.67 -3.36 4.34 -2 4 C-1.896875 4.639375 -1.79375 5.27875 -1.6875 5.9375 C-1.3471875 6.9584375 -1.3471875 6.9584375 -1 8 C-0.01 8.33 0.98 8.66 2 9 C1.01 9.66 0.02 10.32 -1 11 C-1.63799241 16.10707342 -1.63799241 16.10707342 0.04296875 20.7421875 C3.0798807 22.69405506 6.205499 22.31429555 9.6875 22.1875 C10.38939453 22.17396484 11.09128906 22.16042969 11.81445312 22.14648438 C13.54329829 22.11120182 15.27174765 22.05739583 17 22 C17 22.99 17 23.98 17 25 C17.99 25.33 18.98 25.66 20 26 C19.34 26 18.68 26 18 26 C17.95875 26.5775 17.9175 27.155 17.875 27.75 C16.54500609 31.16998433 14.09911668 32.20251232 11 34 C5.05768988 35.98077004 -1.81809916 36.19950794 -7.71484375 33.9765625 C-13.4137692 30.54393186 -16.30431616 26.40092575 -18 20 C-18.81919657 14.16322446 -17.36950822 9.73998098 -14 5 C-9.37741793 1.32080202 -5.87279213 -0.15872411 0 0 Z " fill="#2F3439" transform="translate(542,507)"/>
<path d="M0 0 C30.195 0.495 30.195 0.495 61 1 C61 1.66 61 2.32 61 3 C60.2446698 3.00808685 59.4893396 3.01617371 58.71112061 3.02450562 C51.58960079 3.10247651 44.46828513 3.18977452 37.34701157 3.28752708 C33.68596937 3.3374532 30.02495551 3.38378339 26.36376953 3.421875 C22.82990214 3.45877463 19.29627396 3.50514695 15.76261139 3.55806351 C13.75968743 3.58558963 11.75663673 3.60332811 9.75360107 3.62094116 C7.92215546 3.6507457 7.92215546 3.6507457 6.05371094 3.68115234 C4.97893494 3.69447601 3.90415894 3.70779968 2.79681396 3.7215271 C-0.01656222 4.00164907 -1.68434106 4.39461466 -4 6 C-5.07015579 9.21046736 -5.1332497 11.53299634 -5.14526367 14.90844727 C-5.15164352 16.12303116 -5.15802338 17.33761505 -5.16459656 18.58900452 C-5.16570938 19.90154709 -5.1668222 21.21408966 -5.16796875 22.56640625 C-5.17118179 23.92496272 -5.1745459 25.28351884 -5.17805481 26.64207458 C-5.18403983 29.48754682 -5.18589525 32.33298871 -5.18530273 35.1784668 C-5.1852009 38.82936991 -5.19887747 42.48007947 -5.21607494 46.13093662 C-5.22717495 48.93528646 -5.2292226 51.7395891 -5.22869301 54.54395866 C-5.2304508 56.54596773 -5.24130008 58.54796208 -5.25224304 60.54994202 C-5.24916641 61.76137375 -5.24608978 62.97280548 -5.24291992 64.22094727 C-5.24505745 65.82620018 -5.24505745 65.82620018 -5.24723816 67.46388245 C-5.25456229 70.16887911 -5.25456229 70.16887911 -3 72 C-0.17367516 72.30060869 -0.17367516 72.30060869 3.17797852 72.24291992 C5.1249337 72.24753487 5.1249337 72.24753487 7.11122131 72.25224304 C8.53378475 72.24534581 9.95634644 72.23807888 11.37890625 72.23046875 C12.83096781 72.22927707 14.28303014 72.22882376 15.73509216 72.2290802 C18.7790916 72.22751504 21.82297349 72.21922222 24.86694336 72.20581055 C28.77687776 72.18880552 32.68668307 72.18499661 36.59665012 72.18575573 C39.59483583 72.18548438 42.59299309 72.18000904 45.59116936 72.17275429 C47.03333254 72.16956318 48.47549896 72.16759919 49.91766548 72.16686058 C51.92892739 72.16470256 53.94017737 72.15517349 55.95141602 72.14526367 C57.09788101 72.14145187 58.24434601 72.13764008 59.42555237 72.13371277 C61.93157447 72.29158499 61.93157447 72.29158499 63 71 C63.09417773 68.91380978 63.11742878 66.82439523 63.11352539 64.73608398 C63.11367142 64.08244873 63.11381744 63.42881348 63.1139679 62.75537109 C63.11326883 60.58557872 63.10547678 58.41587121 63.09765625 56.24609375 C63.09579205 54.74536689 63.09436816 53.24463943 63.09336853 51.74391174 C63.08954352 47.78681774 63.0797134 43.82976022 63.06866455 39.87268066 C63.05845006 35.83765151 63.05387083 31.80261647 63.04882812 27.76757812 C63.03809111 19.84503531 63.0210149 11.92252219 63 4 C63.99 4.33 64.98 4.66 66 5 C66 27.44 66 49.88 66 73 C61.86592594 75.06703703 60.13936772 75.24857186 55.64257812 75.24291992 C54.35444214 75.24599655 53.06630615 75.24907318 51.73913574 75.25224304 C50.33650535 75.24534465 48.93387672 75.23807763 47.53125 75.23046875 C46.08923382 75.229276 44.64721685 75.22882399 43.2052002 75.2290802 C40.1857414 75.22751758 37.16640154 75.21924525 34.14697266 75.20581055 C30.27998911 75.18882109 26.41313618 75.18499638 22.54611969 75.18575573 C19.56926226 75.18548357 16.59243328 75.1799949 13.61558533 75.17275429 C12.18985713 75.16957618 10.76412571 75.16760222 9.33839417 75.16686058 C7.34472492 75.16468795 5.35106785 75.15513776 3.35742188 75.14526367 C1.65676575 75.13954597 1.65676575 75.13954597 -0.07824707 75.13371277 C-2.56791071 75.01977438 -4.62929654 74.7261848 -7 74 C-8.03117489 70.57980038 -8.15708326 67.40552024 -8.20874023 63.84204102 C-8.22803085 62.59717422 -8.24732147 61.35230743 -8.26719666 60.06971741 C-8.28200071 58.71445763 -8.29577462 57.35918626 -8.30859375 56.00390625 C-8.31516558 55.31876387 -8.3217374 54.63362148 -8.32850838 53.92771721 C-8.36102867 50.30396462 -8.38550236 46.68024062 -8.4050293 43.05639648 C-8.42286675 40.06182189 -8.45773283 37.06818472 -8.50756836 34.07397461 C-8.56778236 30.45121775 -8.5985042 26.82933196 -8.60820198 23.20609856 C-8.61675158 21.82853984 -8.63555835 20.45100414 -8.6649456 19.07373238 C-8.88177669 8.33753384 -8.88177669 8.33753384 -6.69241333 5.01657104 C-4.58531361 3.18050025 -2.85115539 2 0 2 C0 1.34 0 0.68 0 0 Z " fill="#CEFEFD" transform="translate(295,552)"/>
<path d="M0 0 C2.5226593 -0.38095093 2.5226593 -0.38095093 5.74731445 -0.38818359 C7.55477898 -0.40236832 7.55477898 -0.40236832 9.39875793 -0.4168396 C11.36119698 -0.40773056 11.36119698 -0.40773056 13.36328125 -0.3984375 C14.71608131 -0.40045829 16.06888031 -0.40336977 17.42167664 -0.40713501 C20.26063379 -0.41156272 23.09930811 -0.40511639 25.93823242 -0.39111328 C29.56996247 -0.37406957 33.20102506 -0.38382834 36.83273029 -0.40183067 C39.62866697 -0.4126986 42.42444688 -0.40920765 45.22038841 -0.4014473 C47.20839751 -0.39848207 49.19641278 -0.40756893 51.18440247 -0.4168396 C52.3988353 -0.40738312 53.61326813 -0.39792664 54.86450195 -0.38818359 C55.93102493 -0.38579681 56.99754791 -0.38341003 58.09638977 -0.38095093 C61.44749044 0.05871032 63.29836352 0.99535892 66 3 C68.30675546 6.46013319 68.26138695 7.810459 68.29052734 11.89257812 C68.30328705 13.10393433 68.31604675 14.31529053 68.32919312 15.56335449 C68.33141876 16.87276001 68.33364441 18.18216553 68.3359375 19.53125 C68.34236426 20.88741192 68.34909253 22.24357245 68.35610962 23.59973145 C68.36808108 26.44103207 68.37179046 29.2822111 68.37060547 32.12353516 C68.37040198 35.76561262 68.3977337 39.40691232 68.43214989 43.04880524 C68.45437585 45.8489338 68.4584444 48.64887367 68.45738602 51.44908142 C68.46089573 53.44499478 68.48258175 55.44084926 68.50448608 57.43664551 C68.49833282 58.64800171 68.49217957 59.85935791 68.48583984 61.10742188 C68.48868988 62.17536987 68.49153992 63.24331787 68.49447632 64.34362793 C68 67 68 67 66.35946655 68.84700012 C63.33067406 70.32707932 61.13307071 70.36079842 57.76269531 70.34057617 C56.50169006 70.34034958 55.24068481 70.34012299 53.94146729 70.33988953 C52.57034956 70.32457082 51.19923548 70.30892285 49.828125 70.29296875 C48.42137098 70.28737086 47.01461109 70.28310167 45.60784912 70.28010559 C41.91204576 70.26867185 38.21659821 70.2392178 34.52093506 70.20599365 C30.74707858 70.17526077 26.9731644 70.16159341 23.19921875 70.14648438 C15.79931727 70.11434629 8.39970856 70.06316824 1 70 C1 69.67 1 69.34 1 69 C2.15844925 68.9845388 2.15844925 68.9845388 3.34030151 68.96876526 C10.6095314 68.87089006 17.87867421 68.76839 25.14776421 68.66066074 C28.88510036 68.60543681 32.62244435 68.55201768 36.35986328 68.50268555 C39.96496615 68.45503413 43.56997285 68.40269108 47.17496109 68.34705925 C48.55208067 68.32663921 49.92922662 68.30792553 51.30639267 68.29092598 C53.231504 68.26687453 55.15652995 68.23625749 57.08154297 68.20532227 C58.17852509 68.18977798 59.2755072 68.1742337 60.4057312 68.15821838 C62.98453752 68.17103805 62.98453752 68.17103805 65 67 C65 46.54 65 26.08 65 5 C61.79652541 3.93217514 59.51812177 3.87941694 56.15161133 3.88647461 C54.9505928 3.88655014 53.74957428 3.88662567 52.51216125 3.88670349 C51.21521835 3.89186478 49.91827545 3.89702606 48.58203125 3.90234375 C47.24110466 3.90420923 45.90017739 3.90563252 44.55924988 3.90663147 C41.03290927 3.91044644 37.50660996 3.92026801 33.98028564 3.93133545 C30.38074299 3.9415715 26.78119365 3.94613379 23.18164062 3.95117188 C16.12107687 3.9618912 9.06054113 3.97895538 2 4 C1.67 5.98 1.34 7.96 1 10 C0.67 10 0.34 10 0 10 C-0.33 28.48 -0.66 46.96 -1 66 C-1.33 66 -1.66 66 -2 66 C-2.04632061 57.83764687 -2.08186773 49.67534857 -2.10362434 41.51289654 C-2.11406591 37.72282459 -2.12823182 33.9328425 -2.15087891 30.14282227 C-2.17259413 26.48590523 -2.18456582 22.82907469 -2.18975449 19.17209816 C-2.19345263 17.77622936 -2.20067411 16.38036534 -2.21146011 14.98453331 C-2.22595663 13.03099551 -2.22681676 11.07737087 -2.22705078 9.1237793 C-2.231492 8.0112529 -2.23593323 6.8987265 -2.24050903 5.75248718 C-2 3 -2 3 0 0 Z " fill="#191D20" transform="translate(123,555)"/>
<path d="M0 0 C1.24809448 -0.0127597 2.49618896 -0.02551941 3.78210449 -0.03866577 C5.14054204 -0.04172286 6.49898167 -0.04395092 7.85742188 -0.04541016 C9.25459937 -0.05183933 10.65177552 -0.05856778 12.0489502 -0.06558228 C14.97423424 -0.07754406 17.89940026 -0.08126409 20.82470703 -0.08007812 C24.57090155 -0.07987464 28.31633991 -0.10721052 32.06235504 -0.14162254 C34.94658885 -0.16386827 37.83063974 -0.16791645 40.71495056 -0.16685867 C42.09605015 -0.16921686 43.47715461 -0.17805278 44.85816956 -0.19352341 C46.78946144 -0.21313833 48.72097573 -0.20483438 50.65234375 -0.1953125 C51.75058472 -0.19816254 52.84882568 -0.20101257 53.98034668 -0.20394897 C57.49427344 0.40661332 58.65374503 1.51833814 60.82617188 4.29052734 C61.93640732 7.85953166 61.9437205 11.30893399 61.92382812 15.02880859 C61.91899414 16.62885742 61.91899414 16.62885742 61.9140625 18.26123047 C61.90149414 19.91541992 61.90149414 19.91541992 61.88867188 21.60302734 C61.88416016 22.72515625 61.87964844 23.84728516 61.875 25.00341797 C61.863245 27.76584244 61.84681264 30.52815733 61.82617188 33.29052734 C60.83617187 33.78552734 60.83617187 33.78552734 59.82617188 34.29052734 C59.79644287 33.04178833 59.79644287 33.04178833 59.76611328 31.76782227 C59.68796445 28.67576234 59.60126981 25.58409352 59.50878906 22.49243164 C59.45173095 20.49757374 59.40452746 18.50244194 59.35742188 16.50732422 C59.31875 15.25371094 59.28007812 14.00009766 59.24023438 12.70849609 C59.20881348 11.55115967 59.17739258 10.39382324 59.14501953 9.20141602 C59.03146154 6.09925706 59.03146154 6.09925706 56.82617188 3.29052734 C54.10148318 2.82993437 54.10148318 2.82993437 50.86352539 2.90234375 C49.61205215 2.89288727 48.36057892 2.88343079 47.07118225 2.87368774 C45.69914434 2.87905786 44.3271093 2.88521091 42.95507812 2.89208984 C41.55264637 2.89006954 40.15021563 2.88715848 38.74778748 2.88339233 C35.80628472 2.87896539 32.86505503 2.8854106 29.92358398 2.89941406 C26.15266159 2.91649086 22.38238043 2.90667732 18.61148167 2.88869667 C15.71440298 2.87785513 12.81747625 2.88130705 9.92039299 2.88908005 C8.53011944 2.89108187 7.13983212 2.88862337 5.74957466 2.88164139 C3.80579008 2.87402354 1.86195718 2.88769318 -0.08178711 2.90234375 C-1.1882811 2.90473053 -2.29477509 2.90711731 -3.43479919 2.90957642 C-6.14265378 3.09767103 -6.14265378 3.09767103 -8.02932739 4.4417572 C-9.6720278 7.09529457 -9.56235867 9.1485627 -9.57788086 12.2590332 C-9.59056503 13.48718246 -9.60324921 14.71533173 -9.61631775 15.98069763 C-9.61426622 17.32225716 -9.61127811 18.66381554 -9.60742188 20.00537109 C-9.61198298 21.38155882 -9.61728834 22.75774426 -9.62330627 24.13392639 C-9.6322416 27.0181707 -9.62981005 29.90213819 -9.61987305 32.78637695 C-9.60838682 36.47996196 -9.62858576 40.17259044 -9.65779018 43.86604977 C-9.67615077 46.70827795 -9.67586007 49.5502769 -9.67015266 52.39254951 C-9.6699994 53.75409855 -9.67604768 55.11566308 -9.68844414 56.47715569 C-9.70334514 58.38225936 -9.6900516 60.2875203 -9.67553711 62.19262695 C-9.67537094 63.27611923 -9.67520477 64.35961151 -9.67503357 65.47593689 C-9.03981248 69.04311127 -8.11469628 70.20396227 -5.17382812 72.29052734 C-2.43980202 72.90353161 -2.43980202 72.90353161 0.60449219 72.83642578 C1.76539368 72.85614441 2.92629517 72.87586304 4.12237549 72.8961792 C5.99442657 72.89802216 5.99442657 72.89802216 7.90429688 72.89990234 C9.18600769 72.9164386 10.46771851 72.93297485 11.78826904 72.95001221 C15.18799733 72.99365289 18.58746778 73.013677 21.98742676 73.02874756 C25.45987169 73.04833092 28.93203863 73.09029937 32.40429688 73.13037109 C39.21148366 73.2056369 46.01866014 73.25595011 52.82617188 73.29052734 C52.82617188 73.62052734 52.82617188 73.95052734 52.82617188 74.29052734 C45.10677544 74.31374334 37.38738265 74.33148953 29.66795921 74.34233952 C26.08315163 74.34754813 22.49836801 74.35460891 18.91357422 74.3659668 C15.45116568 74.37686771 11.98878013 74.38281941 8.52635574 74.38540459 C6.56886283 74.38813923 4.6113791 74.39593979 2.65390015 74.40382385 C0.85271225 74.40393715 0.85271225 74.40393715 -0.98486328 74.40405273 C-2.56371811 74.40738365 -2.56371811 74.40738365 -4.17446899 74.41078186 C-7.24847505 74.28753449 -10.15329611 73.86026567 -13.17382812 73.29052734 C-13.17382812 72.63052734 -13.17382812 71.97052734 -13.17382812 71.29052734 C-12.18382812 71.29052734 -11.19382813 71.29052734 -10.17382812 71.29052734 C-10.17382812 70.63052734 -10.17382812 69.97052734 -10.17382812 69.29052734 C-10.83382812 69.29052734 -11.49382812 69.29052734 -12.17382812 69.29052734 C-12.22018225 61.14544496 -12.25571292 53.00041776 -12.27745247 44.85523605 C-12.28788671 41.07303964 -12.30203928 37.29093351 -12.32470703 33.50878906 C-12.34644833 29.85835127 -12.35839946 26.20800029 -12.36358261 22.55750275 C-12.36727606 21.1652515 -12.37448846 19.77300497 -12.38528824 18.38079071 C-12.39981938 16.42985168 -12.40064519 14.47882517 -12.40087891 12.52783203 C-12.40532013 11.41752625 -12.40976135 10.30722046 -12.41433716 9.16326904 C-12.17076942 6.25399286 -11.85945084 4.65726734 -10.17382812 2.29052734 C-6.91840226 -0.01531362 -3.91055898 0.0271457 0 0 Z " fill="#E5FCFE" transform="translate(215.173828125,468.70947265625)"/>
<path d="M0 0 C1.95179672 0.03014442 1.95179672 0.03014442 3.94302368 0.06089783 C5.36875616 0.08809636 6.79448651 0.11540717 8.22021484 0.14282227 C9.67466502 0.16712057 11.12912285 0.19096427 12.58358765 0.21437073 C16.41415117 0.27724058 20.2445793 0.34629894 24.07501221 0.41662598 C27.98272529 0.48728328 31.89053447 0.55211581 35.79833984 0.61743164 C43.46771695 0.74648135 51.13696039 0.88206585 58.80615234 1.02172852 C59.30115234 2.50672852 59.30115234 2.50672852 59.80615234 4.02172852 C58.81615234 4.02172852 57.82615234 4.02172852 56.80615234 4.02172852 C56.31115234 3.52672852 56.31115234 3.52672852 55.80615234 3.02172852 C53.88958152 2.90678003 51.96876466 2.86206379 50.04882812 2.84472656 C48.2015361 2.82547371 48.2015361 2.82547371 46.31692505 2.80583191 C44.96177571 2.79766538 43.60662186 2.79022148 42.25146484 2.78344727 C41.23242884 2.77733397 41.23242884 2.77733397 40.19280624 2.77109718 C36.59729056 2.75022089 33.00181323 2.73592587 29.40625 2.7265625 C25.68793792 2.71549307 21.97022351 2.68109263 18.25212288 2.6413908 C15.39711375 2.6152733 12.54224807 2.60687509 9.68712997 2.60328102 C8.31635373 2.59840253 6.94558442 2.58675258 5.57492447 2.56824303 C3.65751742 2.5439594 1.73982109 2.54722575 -0.17773438 2.55175781 C-1.26947968 2.54589157 -2.36122498 2.54002533 -3.48605347 2.53398132 C-6.25914626 2.78972351 -6.25914626 2.78972351 -8.04658508 4.67572021 C-9.49047933 7.62830315 -9.56810288 9.74176318 -9.56616211 13.02783203 C-9.5723909 14.2391127 -9.57861969 15.45039337 -9.58503723 16.69837952 C-9.57582748 18.00262375 -9.56661774 19.30686798 -9.55712891 20.65063477 C-9.55661004 22.005366 -9.55712877 23.360098 -9.55863953 24.71482849 C-9.55854993 27.55023478 -9.54814503 30.38535599 -9.5300293 33.22070312 C-9.5073206 36.85470541 -9.50680317 40.48829217 -9.51354694 44.12234592 C-9.51688818 46.91818433 -9.51025434 49.71392802 -9.50041771 52.50974846 C-9.49469917 54.5011657 -9.49600129 56.49259908 -9.49739075 58.48402405 C-9.48785873 59.69215256 -9.47832672 60.90028107 -9.46850586 62.14501953 C-9.46389847 63.20995132 -9.45929108 64.27488312 -9.45454407 65.37208557 C-9.38114956 68.25055249 -9.38114956 68.25055249 -7.19384766 71.02172852 C-4.00268067 72.08545084 -1.77626623 72.132357 1.57519531 72.10693359 C2.76007538 72.09974808 3.94495544 72.09256256 5.16574097 72.0851593 C6.4469986 72.07067245 7.72825623 72.05618561 9.04833984 72.04125977 C11.02182907 72.02007332 11.02182907 72.02007332 13.03518677 71.99845886 C15.82105614 71.96651184 18.60680846 71.92928827 21.39257812 71.88964844 C24.95565405 71.84030229 28.51850625 71.81410963 32.08184624 71.79321766 C35.48760606 71.76790817 38.89283787 71.71513068 42.29833984 71.66625977 C43.57554901 71.66189407 44.85275818 71.65752838 46.16867065 71.6530304 C47.95544724 71.61861092 47.95544724 71.61861092 49.77832031 71.58349609 C50.82406219 71.57159744 51.86980408 71.55969879 52.94723511 71.54743958 C56.47752858 70.89827272 58.20313658 69.43058905 60.80615234 67.02172852 C61.13615234 67.68172852 61.46615234 68.34172852 61.80615234 69.02172852 C58.31042366 72.89199956 56.23274332 73.88469193 51.08094788 74.17562866 C50.03901779 74.18848907 48.99708771 74.20134949 47.92358398 74.21459961 C46.14637718 74.238694 46.14637718 74.238694 44.33326721 74.26327515 C38.93693649 74.30777877 33.54074868 74.34919283 28.14428711 74.37182617 C25.29532895 74.38518283 22.44708413 74.41307438 19.59838867 74.45385742 C15.49173923 74.51263652 11.3858566 74.53047951 7.27880859 74.54516602 C6.00473648 74.56783539 4.73066437 74.59050476 3.41798401 74.61386108 C-6.40144846 74.5903032 -6.40144846 74.5903032 -9.47338867 71.55151367 C-10.04114014 70.71668457 -10.6088916 69.88185547 -11.19384766 69.02172852 C-11.52384766 68.69172852 -11.85384766 68.36172852 -12.19384766 68.02172852 C-12.30872809 66.15168466 -12.3535052 64.27729751 -12.37084961 62.40380859 C-12.38368484 61.20198441 -12.39652008 60.00016022 -12.40974426 58.76191711 C-12.4171312 57.45160019 -12.42451813 56.14128326 -12.43212891 54.79125977 C-12.43620443 54.12667944 -12.44027996 53.46209911 -12.44447899 52.77737999 C-12.46536464 49.25621219 -12.4796524 45.73508359 -12.48901367 42.21386719 C-12.50005104 38.58328034 -12.53441156 34.95331102 -12.57418537 31.32294178 C-12.60039575 28.52700193 -12.60870962 25.73120775 -12.61229515 22.93515587 C-12.6195108 20.94877255 -12.64593786 18.96248894 -12.67268372 16.97627258 C-12.64553292 5.67644584 -12.64553292 5.67644584 -8.19384766 1.02172852 C-5.3911056 -0.37964251 -3.13407906 -0.05445311 0 0 Z " fill="#E9FCFE" transform="translate(215.19384765625,384.978271484375)"/>
<path d="M0 0 C1.2113562 -0.00637985 2.4227124 -0.0127597 3.67077637 -0.01933289 C5.63488464 -0.02100212 5.63488464 -0.02100212 7.63867188 -0.02270508 C8.99483272 -0.02591846 10.35099321 -0.02928259 11.70715332 -0.03279114 C14.5484294 -0.03877682 17.38967509 -0.04063155 20.23095703 -0.04003906 C23.87279393 -0.03993733 27.51443635 -0.05360366 31.15622711 -0.07081127 C33.9563283 -0.08192414 36.75638231 -0.08395851 39.5565033 -0.08342934 C41.55237266 -0.08518415 43.5482273 -0.09602696 45.54406738 -0.10697937 C47.36110168 -0.10236443 47.36110168 -0.10236443 49.21484375 -0.09765625 C50.81676575 -0.09979378 50.81676575 -0.09979378 52.4510498 -0.10197449 C55.10742188 0.14526367 55.10742188 0.14526367 58.10742188 2.14526367 C58.46818542 4.85342407 58.46818542 4.85342407 58.44799805 8.33911133 C58.44777145 9.64030914 58.44754486 10.94150696 58.4473114 12.28213501 C58.43199025 13.70786886 58.41634224 15.13359923 58.40039062 16.55932617 C58.39479631 18.01377933 58.39052543 19.46823814 58.38752747 20.92269897 C58.37606561 24.75333223 58.34658735 28.58362495 58.31341553 32.41412354 C58.28274325 36.32185255 58.26902824 40.22963651 58.25390625 44.13745117 C58.22171855 51.80687735 58.1705065 59.47602283 58.10742188 67.14526367 C57.77742188 67.14526367 57.44742188 67.14526367 57.10742188 67.14526367 C57.09196068 65.96469139 57.09196068 65.96469139 57.07618713 64.76026917 C56.97838 57.35828261 56.87589002 49.95638299 56.76808262 42.55453587 C56.71281893 38.74878962 56.65939359 34.94303575 56.61010742 31.13720703 C56.56251447 27.46727033 56.51017378 23.79742976 56.45448112 20.12760735 C56.43403451 18.7245414 56.41532531 17.32144908 56.39834785 15.91833687 C56.37435501 13.95949441 56.34371988 12.00073666 56.31274414 10.04199219 C56.29719986 8.92502457 56.28165558 7.80805695 56.26564026 6.65724182 C56.3892315 4.20665367 56.3892315 4.20665367 55.10742188 3.14526367 C53.17518193 3.02169289 51.23848389 2.96731909 49.30249023 2.93994141 C48.06127914 2.91999619 46.82006805 2.90005096 45.54124451 2.87950134 C44.17658617 2.86251574 42.81192651 2.84563698 41.44726562 2.82885742 C40.05863312 2.80829431 38.67000698 2.78729802 37.28138733 2.7658844 C33.62028129 2.71059721 29.95911814 2.66121742 26.2979126 2.61303711 C22.5644419 2.56287046 18.83105449 2.50715922 15.09765625 2.4519043 C7.76764858 2.34424149 0.43757183 2.24281474 -6.89257812 2.14526367 C-7.22257812 3.46526367 -7.55257813 4.78526367 -7.89257812 6.14526367 C-8.55257813 6.14526367 -9.21257812 6.14526367 -9.89257812 6.14526367 C-9.89257812 26.60526367 -9.89257812 47.06526367 -9.89257812 68.14526367 C-10.55257813 67.81526367 -11.21257812 67.48526367 -11.89257812 67.14526367 C-11.96216786 59.27825768 -12.01543479 51.41132416 -12.04801464 43.54408741 C-12.06365345 39.89077169 -12.08485861 36.23766696 -12.11889648 32.58447266 C-12.15155437 29.05721152 -12.16944457 25.530153 -12.17720985 22.0027523 C-12.18542946 20.00582059 -12.20883873 18.00897009 -12.23246765 16.01216125 C-12.23269424 14.79127304 -12.23292084 13.57038483 -12.2331543 12.3125 C-12.23981613 11.23994461 -12.24647797 10.16738922 -12.25334167 9.06233215 C-11.83700425 5.6959034 -10.94626697 3.82857966 -8.89257812 1.14526367 C-5.68646061 0.07655783 -3.37057061 0.01203049 0 0 Z " fill="#269FA6" transform="translate(300.892578125,554.854736328125)"/>
<path d="M0 0 C1.25132217 -0.01260864 2.50264435 -0.02521729 3.79188538 -0.03820801 C5.15349899 -0.03104895 6.51510745 -0.02284515 7.87670898 -0.01367188 C9.27628346 -0.01636729 10.67585612 -0.02025012 12.07542419 -0.02526855 C15.00505445 -0.03115951 17.93419615 -0.02261323 20.86376953 -0.00390625 C24.61911339 0.01890525 28.37331514 0.0057454 32.12861729 -0.01819611 C35.01715204 -0.03264763 37.90541576 -0.02805168 40.79395866 -0.01768494 C42.17865064 -0.0150169 43.56336724 -0.01829019 44.94803047 -0.02760315 C46.88201554 -0.03775826 48.81608694 -0.01953582 50.75 0 C51.85046158 0.00318237 52.95092316 0.00636475 54.08473206 0.00964355 C56.81030273 0.51757812 56.81030273 0.51757812 58.66679382 2.42926025 C59.91669454 4.71187473 60.17347546 5.95296503 60.13842773 8.53320312 C60.13391602 9.35361084 60.1294043 10.17401855 60.12475586 11.01928711 C60.10348633 11.92622314 60.0822168 12.83315918 60.06030273 13.76757812 C60.04386719 15.20629272 60.04386719 15.20629272 60.02709961 16.67407227 C59.976458 20.28916778 59.89506309 23.90316902 59.81030273 27.51757812 C59.77309207 29.18342873 59.73598923 30.84928175 59.69897461 32.51513672 C59.43605847 44.1835359 59.13416667 55.85072421 58.81030273 67.51757812 C58.48030273 67.51757812 58.15030273 67.51757812 57.81030273 67.51757812 C57.48030273 46.39757812 57.15030273 25.27757812 56.81030273 3.51757812 C47.69405273 3.49695313 38.57780273 3.47632813 29.18530273 3.45507812 C26.31633301 3.44597412 23.44736328 3.43687012 20.49145508 3.42749023 C18.20971727 3.42456878 15.92797894 3.42202076 13.64624023 3.41992188 C12.46779541 3.41480591 11.28935059 3.40968994 10.07519531 3.40441895 C8.93896729 3.4042981 7.80273926 3.40417725 6.63208008 3.40405273 C5.65056976 3.40183212 4.66905945 3.39961151 3.6578064 3.39732361 C0.72701001 3.44979881 0.72701001 3.44979881 -2.42855835 4.14967346 C-3.33973419 4.271082 -4.25091003 4.39249054 -5.18969727 4.51757812 C-5.84969727 3.85757812 -6.50969727 3.19757813 -7.18969727 2.51757812 C-7.18446045 3.11820068 -7.17922363 3.71882324 -7.17382812 4.33764648 C-7.15311713 7.0434465 -7.14005601 9.74922989 -7.12719727 12.45507812 C-7.11881836 13.40060547 -7.11043945 14.34613281 -7.10180664 15.3203125 C-7.09858398 16.21943359 -7.09536133 17.11855469 -7.09204102 18.04492188 C-7.0868042 18.87757568 -7.08156738 19.71022949 -7.07617188 20.56811523 C-7.18969727 22.51757812 -7.18969727 22.51757812 -8.18969727 23.51757812 C-8.30335393 26.57331871 -8.35389086 29.60558605 -8.35766602 32.66210938 C-8.36099442 33.58344162 -8.36432281 34.50477386 -8.36775208 35.45402527 C-8.37282636 37.40855407 -8.37516025 39.36309157 -8.375 41.31762695 C-8.3771804 44.30694944 -8.39531392 47.29589944 -8.41430664 50.28515625 C-8.41724168 52.18163936 -8.41922573 54.07812423 -8.42016602 55.97460938 C-8.42735153 56.86952591 -8.43453705 57.76444244 -8.44194031 58.68647766 C-8.43886368 59.52381943 -8.43578705 60.36116119 -8.43261719 61.22387695 C-8.43404221 61.95810379 -8.43546722 62.69233063 -8.43693542 63.44880676 C-8.15330068 65.82212741 -7.36428161 67.45225989 -6.18969727 69.51757812 C-7.17969727 69.18757812 -8.16969727 68.85757813 -9.18969727 68.51757812 C-10.53994151 65.81708964 -10.33926414 63.68618149 -10.36669922 60.66259766 C-10.37953445 59.43437286 -10.39236969 58.20614807 -10.40559387 56.94070435 C-10.41376068 55.5939372 -10.42120452 54.2471655 -10.42797852 52.90039062 C-10.43205404 52.22319851 -10.43612957 51.54600639 -10.4403286 50.8482933 C-10.46118545 47.26458796 -10.47548927 43.68092088 -10.48486328 40.09716797 C-10.49593246 36.395797 -10.53033819 32.69502646 -10.57003498 28.99386787 C-10.59617864 26.1473987 -10.604553 23.30107316 -10.60814476 20.45449448 C-10.61301595 19.09012671 -10.62464532 17.72576557 -10.64318275 16.36151505 C-10.66752319 14.45160644 -10.66419439 12.54140599 -10.65966797 10.63134766 C-10.66553421 9.54483917 -10.67140045 8.45833069 -10.67744446 7.33889771 C-10.18969727 4.51757812 -10.18969727 4.51757812 -8.54718018 2.16781616 C-5.51480985 0.04515694 -3.68693096 0.01065436 0 0 Z " fill="#2173A2" transform="translate(215.189697265625,470.482421875)"/>
<path d="M0 0 C2.96975757 2.59853787 3.86883492 4.10058229 4.4375 8 C3.94702329 11.36326885 3.01736344 13.28431844 1 16 C-2.21402479 17.6070124 -5.51404554 17.46746516 -9 17 C-11.9375 15.4375 -11.9375 15.4375 -14 13 C-15.14009771 9.08091414 -15.40888632 6.96841496 -13.8125 3.1875 C-9.8993545 -1.5352618 -5.69899411 -1.79845306 0 0 Z " fill="#2E3337" transform="translate(637,454)"/>
<path d="M0 0 C30.195 0.495 30.195 0.495 61 1 C61 1.66 61 2.32 61 3 C60.2446698 3.00808685 59.4893396 3.01617371 58.71112061 3.02450562 C51.58960079 3.10247651 44.46828513 3.18977452 37.34701157 3.28752708 C33.68596937 3.3374532 30.02495551 3.38378339 26.36376953 3.421875 C22.82990214 3.45877463 19.29627396 3.50514695 15.76261139 3.55806351 C13.75968743 3.58558963 11.75663673 3.60332811 9.75360107 3.62094116 C7.92215546 3.6507457 7.92215546 3.6507457 6.05371094 3.68115234 C4.97893494 3.69447601 3.90415894 3.70779968 2.79681396 3.7215271 C-0.01656222 4.00164907 -1.68434106 4.39461466 -4 6 C-5.08857473 9.2657242 -5.12692335 11.65518115 -5.12939453 15.09204102 C-5.13254669 16.34666641 -5.13569885 17.60129181 -5.13894653 18.89393616 C-5.13715683 20.26392654 -5.1351059 21.63391661 -5.1328125 23.00390625 C-5.13348607 24.40730303 -5.13445655 25.81069969 -5.13571167 27.21409607 C-5.13718564 30.15372835 -5.13504341 33.09333024 -5.13037109 36.03295898 C-5.12466872 39.80487514 -5.12795791 43.57672021 -5.13394356 47.34863377 C-5.13755279 50.2456262 -5.136409 53.14260171 -5.13381577 56.03959465 C-5.13314777 57.43069403 -5.13397048 58.82179494 -5.13629532 60.21289253 C-5.13882829 62.15437924 -5.13428466 64.09587132 -5.12939453 66.03735352 C-5.12859894 67.14305191 -5.12780334 68.24875031 -5.12698364 69.38795471 C-5.17682405 71.98239781 -5.17682405 71.98239781 -4 74 C-4.99 74 -5.98 74 -7 74 C-8.03117489 70.57980038 -8.15708326 67.40552024 -8.20874023 63.84204102 C-8.22803085 62.59717422 -8.24732147 61.35230743 -8.26719666 60.06971741 C-8.28200071 58.71445763 -8.29577462 57.35918626 -8.30859375 56.00390625 C-8.31516558 55.31876387 -8.3217374 54.63362148 -8.32850838 53.92771721 C-8.36102867 50.30396462 -8.38550236 46.68024062 -8.4050293 43.05639648 C-8.42286675 40.06182189 -8.45773283 37.06818472 -8.50756836 34.07397461 C-8.56778236 30.45121775 -8.5985042 26.82933196 -8.60820198 23.20609856 C-8.61675158 21.82853984 -8.63555835 20.45100414 -8.6649456 19.07373238 C-8.88177669 8.33753384 -8.88177669 8.33753384 -6.69241333 5.01657104 C-4.58531361 3.18050025 -2.85115539 2 0 2 C0 1.34 0 0.68 0 0 Z " fill="#DDFCFD" transform="translate(295,552)"/>
<path d="M0 0 C1.63001953 0.01353516 1.63001953 0.01353516 3.29296875 0.02734375 C4.12441406 0.03894531 4.95585938 0.05054688 5.8125 0.0625 C6.57697876 9.7628861 6.57697876 9.7628861 3.9375 14.25 C-0.4745706 16.80900095 -4.20539153 16.94466086 -9.1875 16.0625 C-11.8125 14.5625 -11.8125 14.5625 -13.1875 12.0625 C-13.7487502 9.09503884 -13.58129906 7.16366763 -13.1875 4.0625 C-9.4394288 0.05594113 -5.23420286 -0.05628175 0 0 Z " fill="#F2F4F6" transform="translate(553.1875,513.9375)"/>
<path d="M0 0 C1.2409845 0.00007553 2.48196899 0.00015106 3.76055908 0.00022888 C5.10957886 0.00533508 6.45859823 0.01055107 7.80761719 0.01586914 C9.19195505 0.01773515 10.57629357 0.01915819 11.96063232 0.02015686 C15.59710526 0.02396766 19.23353801 0.03378564 22.86999512 0.04486084 C26.58357194 0.05510589 30.29715529 0.0596611 34.01074219 0.06469727 C41.29201047 0.07540923 48.57324569 0.09246835 55.85449219 0.11352539 C55.85449219 0.77352539 55.85449219 1.43352539 55.85449219 2.11352539 C55.08663391 2.11717102 54.31877563 2.12081665 53.52764893 2.12457275 C46.28826807 2.16245285 39.04940183 2.21930469 31.81035233 2.29742813 C28.08871965 2.33692366 24.36732429 2.36910157 20.64550781 2.38452148 C17.05311948 2.399675 13.4613835 2.43409563 9.86928558 2.48183441 C8.49943464 2.496662 7.12949056 2.5045672 5.75955963 2.50540924 C3.83959587 2.5077761 1.9197229 2.53712351 0 2.56762695 C-1.09254089 2.5765094 -2.18508179 2.58539185 -3.31072998 2.59454346 C-6.89330912 3.25043043 -8.06048791 4.14402638 -10.14550781 7.11352539 C-10.75995623 10.01078883 -10.75995623 10.01078883 -10.69140625 13.2590332 C-10.71112488 14.5000177 -10.73084351 15.7410022 -10.75115967 17.01959229 C-10.75282269 18.3686112 -10.75405363 19.71763071 -10.75488281 21.06665039 C-10.76986743 22.45100844 -10.78659518 23.83534863 -10.80499268 25.21966553 C-10.848648 28.85612822 -10.86866085 32.49234978 -10.88372803 36.12902832 C-10.90330599 39.84275562 -10.9452751 43.55622274 -10.98535156 47.26977539 C-11.06063368 54.55095542 -11.11093678 61.83202618 -11.14550781 69.11352539 C-11.80550781 69.11352539 -12.46550781 69.11352539 -13.14550781 69.11352539 C-13.21514519 61.13338732 -13.26838843 53.15337709 -13.30094433 45.17300987 C-13.31657282 41.46703705 -13.33775901 37.76127275 -13.37182617 34.05541992 C-13.40452101 30.47628364 -13.42238201 26.89734741 -13.43013954 23.31807327 C-13.43566498 21.95536782 -13.44645485 20.5926728 -13.46269798 19.23005295 C-13.48460417 17.31550608 -13.48573434 15.40075614 -13.48608398 13.48608398 C-13.49607674 11.85393448 -13.49607674 11.85393448 -13.50627136 10.18881226 C-13.07950411 6.55088447 -12.13704743 4.18279534 -10.14550781 1.11352539 C-7.01061946 -0.39516682 -3.4359463 -0.00698363 0 0 Z " fill="#E0FCFD" transform="translate(216.1455078125,552.886474609375)"/>
<path d="M0 0 C1.87720985 -0.01441132 1.87720985 -0.01441132 3.79234314 -0.02911377 C5.164376 -0.03396102 6.53641097 -0.03824003 7.90844727 -0.04199219 C9.31087751 -0.04774325 10.71330773 -0.05350099 12.11573792 -0.05926514 C15.05714281 -0.0697739 17.99852038 -0.07561758 20.93994141 -0.07910156 C24.7108 -0.08459044 28.48129825 -0.10862691 32.25204372 -0.13707352 C35.14908407 -0.15568644 38.04603731 -0.16090473 40.9431324 -0.16243744 C42.33342525 -0.16546686 43.72371646 -0.17350517 45.11395073 -0.18662262 C47.05766552 -0.2036553 49.00152865 -0.19996208 50.9453125 -0.1953125 C52.05180649 -0.19895813 53.15830048 -0.20260376 54.29832458 -0.20635986 C57.03735352 0.16113281 57.03735352 0.16113281 58.89483643 1.31413269 C60.52889752 3.95576586 60.41148751 5.97364365 60.40966797 9.06958008 C60.41901115 10.89145592 60.41901115 10.89145592 60.42854309 12.75013733 C60.41933334 14.0626799 60.4101236 15.37522247 60.40063477 16.72753906 C60.40011612 18.08609517 60.40063399 19.44465203 60.40214539 20.8032074 C60.4020557 23.6487856 60.39163388 26.49408023 60.37353516 29.33959961 C60.35082623 32.99054366 60.3503081 36.64107417 60.3570528 40.29206944 C60.36039065 43.09644764 60.3537666 45.90073121 60.34392357 48.70509148 C60.33819333 50.70707798 60.3395086 52.70908061 60.34089661 54.71107483 C60.33136459 55.92250656 60.32183258 57.13393829 60.31201172 58.38208008 C60.30510063 59.98733299 60.30510063 59.98733299 60.29804993 61.62501526 C60.03735352 64.16113281 60.03735352 64.16113281 58.03735352 66.16113281 C57.70735352 45.04113281 57.37735352 23.92113281 57.03735352 2.16113281 C55.38735352 2.49113281 53.73735352 2.82113281 52.03735352 3.16113281 C50.04362894 3.21887894 48.04790132 3.22129326 46.05371094 3.18286133 C44.87286423 3.16276505 43.69201752 3.14266876 42.47538757 3.1219635 C41.21064102 3.09492844 39.94589447 3.06789337 38.64282227 3.04003906 C37.34033035 3.01642807 36.03783844 2.99281708 34.69587708 2.9684906 C31.24510408 2.90587538 27.79449156 2.83674584 24.34387207 2.76623535 C20.81794498 2.69534713 17.29190476 2.63065309 13.76586914 2.56542969 C6.85624101 2.43670856 -0.05323729 2.30110155 -6.96264648 2.16113281 C-7.29264648 2.82113281 -7.62264648 3.48113281 -7.96264648 4.16113281 C-7.96264648 3.17113281 -7.96264648 2.18113281 -7.96264648 1.16113281 C-5.23393696 -0.20322195 -3.05458812 0.01886295 0 0 Z " fill="#1F2327" transform="translate(130.962646484375,386.8388671875)"/>
<path d="M0 0 C1.38289611 0.00933289 2.76580882 0.01644676 4.14872742 0.0214386 C7.7774165 0.04047177 11.40509479 0.08953805 15.03338623 0.1449585 C18.74021736 0.19623215 22.44721286 0.21896978 26.15429688 0.24414062 C33.41973019 0.29766273 40.6843325 0.38292795 47.94921875 0.48828125 C48.93921875 2.46828125 48.93921875 2.46828125 49.94921875 4.48828125 C48.95921875 3.99328125 48.95921875 3.99328125 47.94921875 3.48828125 C46.25458617 3.36925313 44.55550753 3.31113438 42.85693359 3.28295898 C41.7959848 3.26301376 40.73503601 3.24306854 39.64193726 3.22251892 C38.49294952 3.20580643 37.34396179 3.18909393 36.16015625 3.171875 C34.98659576 3.1510939 33.81303528 3.13031281 32.60391235 3.10890198 C28.84407571 3.04336142 25.08416753 2.98450049 21.32421875 2.92578125 C18.77994043 2.88260033 16.23566942 2.83898618 13.69140625 2.79492188 C7.44408668 2.68767543 1.19669549 2.58591745 -5.05078125 2.48828125 C-5.05078125 3.14828125 -5.05078125 3.80828125 -5.05078125 4.48828125 C-8.35078125 4.48828125 -11.65078125 4.48828125 -15.05078125 4.48828125 C-17.64512138 9.42663044 -17.39929248 14.38090032 -17.46484375 19.8203125 C-17.4842099 20.81205978 -17.50357605 21.80380707 -17.52352905 22.8256073 C-17.58316578 25.98391195 -17.6296468 29.14225335 -17.67578125 32.30078125 C-17.71397565 34.44597917 -17.75302823 36.591162 -17.79296875 38.73632812 C-17.88885417 43.98684487 -17.97394803 49.23745301 -18.05078125 54.48828125 C-18.38078125 54.48828125 -18.71078125 54.48828125 -19.05078125 54.48828125 C-19.17763225 47.60168134 -19.26515391 40.71538302 -19.32543945 33.82788086 C-19.3505725 31.48531841 -19.38468433 29.1428343 -19.42797852 26.80053711 C-19.48868053 23.43193226 -19.51700376 20.06436476 -19.5390625 16.6953125 C-19.56486893 15.64930374 -19.59067535 14.60329498 -19.61726379 13.52558899 C-19.61894815 9.15191147 -19.43894569 6.23295133 -17.3984375 2.31835938 C-11.8802473 -0.6982942 -6.15412409 -0.12178334 0 0 Z " fill="#267A94" transform="translate(224.05078125,554.51171875)"/>
<path d="M0 0 C0.99 0 1.98 0 3 0 C4.38264404 2.76528808 4.14251931 5.01989733 4.16113281 8.11450195 C4.17074036 9.39956131 4.1803479 10.68462067 4.19024658 12.00862122 C4.19509484 13.41850609 4.1993736 14.82839303 4.203125 16.23828125 C4.20887704 17.68076072 4.21463476 19.12324018 4.22039795 20.5657196 C4.23090948 23.59288896 4.23675086 26.62003175 4.24023438 29.6472168 C4.24571357 33.52100702 4.26972825 37.39444477 4.29820633 41.26812458 C4.31685815 44.2493135 4.32203969 47.23041805 4.32357025 50.21166039 C4.32659257 51.6393749 4.33460694 53.06708808 4.34775543 54.49474525 C4.36486396 56.49553061 4.36108393 58.49646133 4.35644531 60.49731445 C4.36191376 62.20368828 4.36191376 62.20368828 4.36749268 63.9445343 C3.94248045 67.47823814 3.35671336 69.3195721 1 72 C-1.82841492 72.60127258 -1.82841492 72.60127258 -5.30737305 72.56762695 C-6.60849533 72.5672493 -7.90961761 72.56687164 -9.25016785 72.56648254 C-10.67069451 72.54094909 -12.09121143 72.5148691 -13.51171875 72.48828125 C-14.96473475 72.47895464 -16.41776649 72.47183781 -17.87080383 72.46684265 C-21.69348637 72.44776018 -25.51521754 72.3986506 -29.33752441 72.34332275 C-33.23855722 72.29215602 -37.13974391 72.26933424 -41.04101562 72.24414062 C-48.69444394 72.19053136 -56.34708863 72.10520564 -64 72 C-64 71.34 -64 70.68 -64 70 C-42.55 69.67 -21.1 69.34 1 69 C1.91036655 65.35853381 2.13218743 62.61898243 2.14526367 58.90209961 C2.15164352 57.67079819 2.15802338 56.43949677 2.16459656 55.17088318 C2.16612493 53.83137044 2.16723905 52.49185717 2.16796875 51.15234375 C2.17118308 49.77519191 2.17454729 48.39804041 2.17805481 47.02088928 C2.18403466 44.13851123 2.18589577 41.25616312 2.18530273 38.3737793 C2.1852009 34.6792853 2.19887954 30.9849826 2.21607494 27.29053402 C2.22718568 24.44840104 2.22922227 21.60631454 2.22869301 18.76416206 C2.22987351 17.40179342 2.23429921 16.03942359 2.24202538 14.67707634 C2.25181069 12.77424465 2.24768674 10.87135674 2.24291992 8.96850586 C2.24434494 7.88580917 2.24576996 6.80311249 2.24723816 5.68760681 C2.19447062 2.77587912 2.19447062 2.77587912 0 0 Z " fill="#D8FEFE" transform="translate(272,555)"/>
<path d="M0 0 C0.33 0 0.66 0 1 0 C1 4.62 1 9.24 1 14 C1.66 14 2.32 14 3 14 C3.05784708 18.12494151 3.09354407 22.24977944 3.125 26.375 C3.14175781 27.550625 3.15851563 28.72625 3.17578125 29.9375 C3.18222656 31.05898438 3.18867188 32.18046875 3.1953125 33.3359375 C3.20578613 34.37282715 3.21625977 35.4097168 3.22705078 36.47802734 C3 39 3 39 1 41 C0.29289322 42.64991582 -0.37943989 44.31562256 -1 46 C-1.70348068 45.83923477 -2.40696136 45.67846954 -3.13175964 45.51283264 C-6.10358072 44.98148008 -8.87434029 44.84069634 -11.8918457 44.79467773 C-13.05267166 44.77473251 -14.21349762 44.75478729 -15.40950012 44.73423767 C-16.65237289 44.71752518 -17.89524567 44.70081268 -19.17578125 44.68359375 C-20.45607712 44.66281265 -21.73637299 44.64203156 -23.0554657 44.62062073 C-26.44689729 44.56562428 -29.83838735 44.51611688 -33.22991943 44.46777344 C-36.69564979 44.41739384 -40.16129603 44.36179399 -43.62695312 44.30664062 C-50.4179016 44.19962571 -57.20891331 44.09782866 -64 44 C-64 43.67 -64 43.34 -64 43 C-63.24022858 42.99191315 -62.48045715 42.98382629 -61.69766235 42.97549438 C-54.54608567 42.89763273 -47.3947155 42.81036814 -40.24338722 42.71247292 C-36.56659359 42.66247448 -32.88982918 42.61614507 -29.21289062 42.578125 C-25.66606297 42.54131654 -22.11947779 42.49496933 -18.5728569 42.44193649 C-17.2180849 42.42336878 -15.86326087 42.40826962 -14.50841141 42.39665604 C-12.61439144 42.37983491 -10.72050412 42.34966384 -8.82666016 42.31884766 C-7.20783432 42.29886215 -7.20783432 42.29886215 -5.55630493 42.2784729 C-2.8344136 42.25199493 -2.8344136 42.25199493 -1 40 C-0.75393985 36.99113276 -0.62619218 34.06782248 -0.5859375 31.0546875 C-0.56657135 30.1696756 -0.5472052 29.2846637 -0.5272522 28.37283325 C-0.46737277 25.54032084 -0.42103787 22.70776797 -0.375 19.875 C-0.33682789 17.95701332 -0.29777662 16.03904393 -0.2578125 14.12109375 C-0.16166445 9.41420252 -0.07766458 4.70723104 0 0 Z " fill="#B0DDF0" transform="translate(274,498)"/>
<path d="M0 0 C1.22103928 0.00007553 2.44207855 0.00015106 3.70011902 0.00022888 C5.67834404 0.00797081 5.67834404 0.00797081 7.6965332 0.01586914 C9.05988005 0.01773459 10.42322756 0.01915789 11.78657532 0.02015686 C15.37209936 0.02397207 18.9575828 0.03379384 22.54309082 0.04486084 C26.20295665 0.05509638 29.86282905 0.05965907 33.52270508 0.06469727 C40.70176003 0.07541701 47.88078155 0.09248146 55.05981445 0.11352539 C55.05981445 1.10352539 55.05981445 2.09352539 55.05981445 3.11352539 C54.56481445 2.61852539 54.56481445 2.61852539 54.05981445 2.11352539 C52.40337079 1.99061821 50.74182453 1.93568631 49.08105469 1.90820312 C47.4895182 1.87828529 47.4895182 1.87828529 45.86582947 1.84776306 C44.71168045 1.83105057 43.55753143 1.81433807 42.3684082 1.79711914 C41.19343277 1.77633804 40.01845734 1.75555695 38.80787659 1.73414612 C35.03775122 1.66852415 31.26755363 1.60970709 27.49731445 1.55102539 C24.94847872 1.50785219 22.39965042 1.46423831 19.85083008 1.42016602 C13.58723553 1.31282994 7.32356844 1.21108749 1.05981445 1.11352539 C1.05981445 1.77352539 1.05981445 2.43352539 1.05981445 3.11352539 C-2.24018555 3.11352539 -5.54018555 3.11352539 -8.94018555 3.11352539 C-8.94018555 3.77352539 -8.94018555 4.43352539 -8.94018555 5.11352539 C-9.60018555 5.11352539 -10.26018555 5.11352539 -10.94018555 5.11352539 C-10.12768555 3.17602539 -10.12768555 3.17602539 -8.94018555 1.11352539 C-5.71160461 0.03733174 -3.39479275 -0.00699957 0 0 Z " fill="#1B84A6" transform="translate(217.940185546875,555.886474609375)"/>
<path d="M0 0 C0.495 0.99 0.495 0.99 1 2 C-2.29646911 5.85776335 -2.29646911 5.85776335 -5.37921143 6.48101807 C-6.25857361 6.47213562 -7.13793579 6.46325317 -8.04394531 6.45410156 C-9.04468079 6.45379944 -10.04541626 6.45349731 -11.07647705 6.45318604 C-12.14952087 6.43254089 -13.2225647 6.41189575 -14.328125 6.390625 C-15.43226746 6.38496521 -16.53640991 6.37930542 -17.67401123 6.37347412 C-21.19978226 6.35108768 -24.72453624 6.30088496 -28.25 6.25 C-30.64061032 6.22993803 -33.03123658 6.21168674 -35.421875 6.1953125 C-41.28159687 6.15121543 -47.14072578 6.08427998 -53 6 C-53 5.67 -53 5.34 -53 5 C-52.4097554 4.99635437 -51.8195108 4.99270874 -51.21138 4.98895264 C-45.06280272 4.94711175 -38.91497081 4.8777551 -32.7668457 4.79248047 C-30.47297626 4.76427118 -28.17900962 4.74305647 -25.88500977 4.72900391 C-22.58559407 4.70757449 -19.28734698 4.66092217 -15.98828125 4.609375 C-14.45207878 4.60753204 -14.45207878 4.60753204 -12.88484192 4.60565186 C-7.02501475 4.49111313 -7.02501475 4.49111313 -1.81323242 1.96191406 C-0.91568237 0.9907666 -0.91568237 0.9907666 0 0 Z " fill="#DBFCFE" transform="translate(276,452)"/>
<path d="M0 0 C7.59 0 15.18 0 23 0 C23 0.33 23 0.66 23 1 C20.36 1 17.72 1 15 1 C15 1.66 15 2.32 15 3 C10.05 2.67 5.1 2.34 0 2 C0 1.34 0 0.68 0 0 Z " fill="#1FB1B9" transform="translate(307,557)"/>
<path d="M0 0 C1.77503906 0.03480469 1.77503906 0.03480469 3.5859375 0.0703125 C5.36871094 0.09738281 5.36871094 0.09738281 7.1875 0.125 C8.10273438 0.14820313 9.01796875 0.17140625 9.9609375 0.1953125 C9.9609375 0.5253125 9.9609375 0.8553125 9.9609375 1.1953125 C12.4359375 1.6903125 12.4359375 1.6903125 14.9609375 2.1953125 C14.6309375 2.8553125 14.3009375 3.5153125 13.9609375 4.1953125 C11.35641479 4.05444648 8.75243553 3.90782786 6.1484375 3.7578125 C5.04145508 3.69883789 5.04145508 3.69883789 3.91210938 3.63867188 C0.73022408 3.45150215 -2.00068628 3.20810457 -5.0390625 2.1953125 C-3.0390625 0.1953125 -3.0390625 0.1953125 0 0 Z " fill="#229AC4" transform="translate(244.0390625,556.8046875)"/>
<path d="M0 0 C4.07507572 -0.04946866 8.15003497 -0.08575189 12.2253418 -0.10986328 C13.61144048 -0.1199157 14.99751799 -0.1335597 16.38354492 -0.15087891 C18.3766975 -0.17515952 20.37000533 -0.18542031 22.36328125 -0.1953125 C24.16212769 -0.21102295 24.16212769 -0.21102295 25.99731445 -0.22705078 C29 0 29 0 32 2 C32 2.66 32 3.32 32 4 C31.41299316 3.86287598 30.82598633 3.72575195 30.22119141 3.58447266 C23.58544369 2.13367403 17.15389857 1.59221437 10.375 1.375 C9.37082031 1.33632813 8.36664063 1.29765625 7.33203125 1.2578125 C4.88818995 1.16471378 2.44433404 1.07889087 0 1 C0 0.67 0 0.34 0 0 Z " fill="#349AA1" transform="translate(327,555)"/>
<path d="M0 0 C0.66 0 1.32 0 2 0 C2 4.62 2 9.24 2 14 C-0.97 14 -3.94 14 -7 14 C-7 13.34 -7 12.68 -7 12 C-4.69 12 -2.38 12 0 12 C0 8.04 0 4.08 0 0 Z " fill="#1F2225" transform="translate(838,527)"/>
<path d="M0 0 C0 0.33 0 0.66 0 1 C-2.64 1 -5.28 1 -8 1 C-8.33 2.65 -8.66 4.3 -9 6 C-9.66 5.67 -10.32 5.34 -11 5 C-11.33 7.31 -11.66 9.62 -12 12 C-12.66 11.34 -13.32 10.68 -14 10 C-13.84179306 6.3612404 -13.4205076 4.50189617 -11.0625 1.6875 C-7.13237681 -1.52805534 -4.91954237 -0.81992373 0 0 Z " fill="#2A2B2C" transform="translate(636,454)"/>
<path d="M0 0 C4.62 0 9.24 0 14 0 C14.33 0.66 14.66 1.32 15 2 C14.08476563 2.06058594 13.16953125 2.12117188 12.2265625 2.18359375 C11.03804687 2.26738281 9.84953125 2.35117187 8.625 2.4375 C7.44164062 2.51871094 6.25828125 2.59992188 5.0390625 2.68359375 C2.08481099 2.81084936 2.08481099 2.81084936 0 4 C0 2.68 0 1.36 0 0 Z " fill="#FBFEFE" transform="translate(602,493)"/>
<path d="M0 0 C0 0.66 0 1.32 0 2 C-3.3 2 -6.6 2 -10 2 C-10 2.66 -10 3.32 -10 4 C-10.66 4 -11.32 4 -12 4 C-11.1875 2.0625 -11.1875 2.0625 -10 0 C-6.30581799 -1.231394 -3.7943739 -0.64432764 0 0 Z " fill="#1C8EB5" transform="translate(219,557)"/>
<path d="M0 0 C0.33 0 0.66 0 1 0 C1.33 1.98 1.66 3.96 2 6 C3.65 4.68 5.3 3.36 7 2 C7.66 2.33 8.32 2.66 9 3 C7.8553125 3.8971875 7.8553125 3.8971875 6.6875 4.8125 C4.6516425 6.46959332 2.8021721 8.10297674 1 10 C0.34 9.67 -0.32 9.34 -1 9 C-0.67 6.03 -0.34 3.06 0 0 Z " fill="#3C4246" transform="translate(476,481)"/>
<path d="M0 0 C0.33 0.66 0.66 1.32 1 2 C0.0625 4.625 0.0625 4.625 -1 7 C-5.455 6.01 -5.455 6.01 -10 5 C-10 4.67 -10 4.34 -10 4 C-8.906875 3.896875 -7.81375 3.79375 -6.6875 3.6875 C-3.14440371 3.02692273 -2.06756277 2.7972908 0 0 Z " fill="#D9F5FD" transform="translate(274,537)"/>
<path d="M0 0 C0.33 0.99 0.66 1.98 1 3 C-0.21484375 5.04296875 -0.21484375 5.04296875 -1.9375 7.1875 C-2.50339844 7.90292969 -3.06929687 8.61835937 -3.65234375 9.35546875 C-4.09707031 9.89816406 -4.54179687 10.44085937 -5 11 C-5.66 10.67 -6.32 10.34 -7 10 C-6.67 8.68 -6.34 7.36 -6 6 C-5.34 6.33 -4.68 6.66 -4 7 C-4 6.01 -4 5.02 -4 4 C-3.01 4 -2.02 4 -1 4 C-0.67 2.68 -0.34 1.36 0 0 Z " fill="#25292D" transform="translate(516,526)"/>
<path d="M0 0 C-0.66 0.66 -1.32 1.32 -2 2 C-3.32 2 -4.64 2 -6 2 C-6 2.66 -6 3.32 -6 4 C-7.98 4.33 -9.96 4.66 -12 5 C-8.12259529 0.85518807 -5.65610938 -0.15286782 0 0 Z " fill="#1E2225" transform="translate(542,507)"/>
<path d="M0 0 C0.33 0 0.66 0 1 0 C1 2.64 1 5.28 1 8 C-1.60582371 8.93065133 -2.64198224 9.14917407 -5.25 8.0625 C-5.8275 7.711875 -6.405 7.36125 -7 7 C-5.68 7 -4.36 7 -3 7 C-3 6.34 -3 5.68 -3 5 C-2.01 5 -1.02 5 0 5 C0 3.35 0 1.7 0 0 Z " fill="#3D4448" transform="translate(559,499)"/>
<path d="M0 0 C0.33 0.66 0.66 1.32 1 2 C0.22265625 3.7265625 0.22265625 3.7265625 -0.9375 5.625 C-1.618125 6.73875 -2.29875 7.8525 -3 9 C-3.33 9 -3.66 9 -4 9 C-4 6.36 -4 3.72 -4 1 C-3.67 1.66 -3.34 2.32 -3 3 C-2.34 3 -1.68 3 -1 3 C-0.67 2.01 -0.34 1.02 0 0 Z " fill="#1F2328" transform="translate(909,464)"/>
<path d="M0 0 C0 0.66 0 1.32 0 2 C-0.639375 2.226875 -1.27875 2.45375 -1.9375 2.6875 C-4.27193661 3.85250896 -4.27193661 3.85250896 -4.75 6.625 C-4.8325 7.40875 -4.915 8.1925 -5 9 C-5.66 9 -6.32 9 -7 9 C-6.51058824 3.49411765 -6.51058824 3.49411765 -4.0625 1.125 C-2 0 -2 0 0 0 Z " fill="#2D80A2" transform="translate(212,555)"/>
<path d="M0 0 C0.33 0.66 0.66 1.32 1 2 C2.32 2 3.64 2 5 2 C5 2.99 5 3.98 5 5 C5.66 5 6.32 5 7 5 C7.33 6.32 7.66 7.64 8 9 C7.34 8.67 6.68 8.34 6 8 C6 7.34 6 6.68 6 6 C5.401875 5.731875 4.80375 5.46375 4.1875 5.1875 C2.02775192 4.01506533 0.64209744 2.80630718 -1 1 C-0.67 0.67 -0.34 0.34 0 0 Z " fill="#202428" transform="translate(433,504)"/>
<path d="M0 0 C0.99 0.33 1.98 0.66 3 1 C-1.455 4.465 -1.455 4.465 -6 8 C-6 7.01 -6 6.02 -6 5 C-3.1875 2.25 -3.1875 2.25 0 0 Z " fill="#1B1C1E" transform="translate(537,482)"/>
<path d="M0 0 C0.928125 0.20625 1.85625 0.4125 2.8125 0.625 C3.1425 1.615 3.4725 2.605 3.8125 3.625 C0.5125 2.965 -2.7875 2.305 -6.1875 1.625 C-3.1875 -0.375 -3.1875 -0.375 0 0 Z " fill="#36B1B3" transform="translate(355.1875,555.375)"/>
<path d="M0 0 C1.88343932 3.76687864 2.22057835 5.02958963 2 9 C1.01 9 0.02 9 -1 9 C-0.67 6.03 -0.34 3.06 0 0 Z " fill="#3A3F44" transform="translate(637,460)"/>
</svg>
